<svg width="85" height="72" viewBox="0 0 85 72" fill="none" xmlns="http://www.w3.org/2000/svg">
<circle cx="43.5" cy="27.5" r="16.5" fill="#98CA33"/>
<path d="M48.656 22.1033L40.7272 29.4172L37.343 26.2954C36.4728 25.4926 35.0224 25.4926 34.1522 26.2954C33.282 27.0981 33.282 28.436 34.1522 29.2388L39.1802 33.8769C39.5669 34.2336 40.1471 34.5012 40.7272 34.5012C41.3074 34.5012 41.8876 34.3228 42.2743 33.8769L51.8468 25.0467C52.7171 24.2439 52.7171 22.906 51.8468 22.1033C50.9766 21.3005 49.5262 21.3005 48.656 22.1033Z" fill="#454545"/>
<path d="M43.0784 1.00841C42.8232 1.03862 42.5795 1.13109 42.3685 1.27769L38.5253 3.8725L33.972 2.94228C33.6639 2.87452 33.3425 2.90138 33.0499 3.0193C32.7572 3.13723 32.507 3.34074 32.332 3.60322L29.7861 7.49544L25.233 8.3767C24.9235 8.43521 24.6388 8.58564 24.4161 8.80834C24.1934 9.03104 24.043 9.31568 23.9845 9.62514L23.1032 14.1783L19.211 16.7242C18.9485 16.8992 18.745 17.1494 18.6271 17.4421C18.5092 17.7347 18.4823 18.0561 18.5501 18.3643L19.4803 22.9174L16.8855 26.7607C16.7087 27.0206 16.6142 27.3276 16.6142 27.6419C16.6142 27.9563 16.7087 28.2633 16.8855 28.5232L19.4803 32.342L18.5501 36.8951C18.4823 37.2033 18.5092 37.5247 18.6271 37.8174C18.745 38.11 18.9485 38.3602 19.211 38.5353L21.4142 39.9795L8.24428 60.4688C8.07922 60.7287 7.99436 61.0313 8.00029 61.3391C8.00622 61.6469 8.10269 61.9461 8.27764 62.1994C8.45259 62.4527 8.69827 62.6489 8.98402 62.7634C9.26977 62.8779 9.58291 62.9056 9.88436 62.8432L20.1902 60.7869L22.9319 70.3585C23.0114 70.657 23.1774 70.9253 23.4091 71.1298C23.6407 71.3342 23.9275 71.4655 24.2336 71.5074C24.5397 71.5492 24.8513 71.4997 25.1293 71.365C25.4073 71.2302 25.6393 71.0163 25.796 70.7501L37.2524 51.6562L38.5253 51.3869L42.3685 53.9817C42.6258 54.1664 42.9331 54.2689 43.2498 54.2754C43.5664 54.2689 43.8737 54.1664 44.131 53.9817L47.9742 51.3869L49.2472 51.6562L60.7035 70.7501C60.8603 71.0163 61.0922 71.2302 61.3702 71.365C61.6482 71.4997 61.9598 71.5492 62.2659 71.5074C62.572 71.4655 62.8589 71.3342 63.0905 71.1298C63.3221 70.9253 63.4881 70.657 63.5676 70.3585L66.3093 60.7869L76.6152 62.8432C76.9166 62.9056 77.2298 62.8779 77.5155 62.7634C77.8012 62.6489 78.0469 62.4527 78.2219 62.1994C78.3968 61.9461 78.4933 61.6469 78.4992 61.3391C78.5051 61.0313 78.4203 60.7287 78.2552 60.4688L65.0853 39.9551L67.264 38.5353C67.5265 38.3603 67.73 38.11 67.8479 37.8174C67.9659 37.5247 67.9927 37.2033 67.9249 36.8951L66.9947 32.342L69.5895 28.5232C69.7663 28.2633 69.8609 27.9563 69.8609 27.6419C69.8609 27.3276 69.7663 27.0206 69.5895 26.7607L66.9947 22.9174L67.9249 18.3643C67.9927 18.0561 67.9659 17.7347 67.8479 17.442C67.73 17.1494 67.5265 16.8992 67.264 16.7242L63.3718 14.1783L62.4905 9.62514C62.432 9.31569 62.2816 9.03104 62.0589 8.80834C61.8362 8.58564 61.5516 8.43522 61.2421 8.3767L56.6889 7.49544L54.143 3.60322C53.968 3.34074 53.7178 3.13723 53.4251 3.0193C53.1325 2.90138 52.8111 2.87452 52.503 2.94228L47.9742 3.8725L44.131 1.27769C43.8235 1.06524 43.4501 0.969739 43.0784 1.00841ZM43.2498 4.46L46.7503 6.85898C46.9267 6.98146 47.1263 7.06639 47.3369 7.1085C47.5474 7.15061 47.7643 7.149 47.9742 7.10377L52.0868 6.22251L54.4123 9.77202C54.5283 9.95 54.6792 10.1025 54.856 10.2203C55.0327 10.3382 55.2316 10.4189 55.4405 10.4574L59.6264 11.2408L60.4097 15.4268C60.4483 15.6356 60.529 15.8345 60.6468 16.0112C60.7647 16.188 60.9172 16.3389 61.0952 16.4549L64.6447 18.7804L63.7635 22.9174C63.7182 23.1273 63.7166 23.3443 63.7587 23.5549C63.8008 23.7654 63.8858 23.965 64.0082 24.1414L66.4072 27.6419L64.0082 31.118C63.8858 31.2944 63.8008 31.494 63.7587 31.7046C63.7166 31.9151 63.7182 32.1321 63.7635 32.342L64.6447 36.479L61.0952 38.8045C60.9172 38.9205 60.7647 39.0714 60.6468 39.2482C60.529 39.4249 60.4483 39.6238 60.4097 39.8327L59.6264 44.0187L55.4405 44.802C55.2316 44.8406 55.0327 44.9212 54.856 45.0391C54.6792 45.1569 54.5283 45.3095 54.4123 45.4874L52.0868 49.0369L47.9742 48.1556C47.7643 48.1104 47.5474 48.1088 47.3369 48.1509C47.1263 48.193 46.9267 48.278 46.7503 48.4004L43.2498 50.7994L39.7492 48.4004C39.5728 48.278 39.3732 48.193 39.1627 48.1509C38.9521 48.1088 38.7352 48.1104 38.5253 48.1556L34.3882 49.0369L32.0627 45.4874C31.9468 45.3095 31.7958 45.1569 31.6191 45.0391C31.4423 44.9212 31.2434 44.8406 31.0345 44.802L26.8486 44.0187L26.0653 39.8327C26.0267 39.6238 25.946 39.4249 25.8282 39.2482C25.7103 39.0714 25.5578 38.9205 25.3798 38.8045L21.8303 36.479L22.7115 32.342C22.7568 32.1321 22.7584 31.9151 22.7163 31.7046C22.6742 31.494 22.5893 31.2944 22.4668 31.118L20.0678 27.6419L22.4668 24.1414C22.5893 23.965 22.6742 23.7654 22.7163 23.5549C22.7584 23.3443 22.7568 23.1273 22.7115 22.9174L21.8303 18.7804L25.3798 16.4549C25.5578 16.3389 25.7103 16.188 25.8282 16.0112C25.946 15.8345 26.0267 15.6356 26.0653 15.4268L26.8486 11.2408L31.0345 10.4574C31.2434 10.4189 31.4423 10.3382 31.6191 10.2204C31.7958 10.1026 31.9468 9.95001 32.0627 9.77202L34.3882 6.22251L38.5253 7.10377C38.7352 7.149 38.9521 7.15061 39.1627 7.1085C39.3732 7.06639 39.5728 6.98146 39.7492 6.85898L43.2498 4.46ZM43.2498 8.84181C32.8853 8.84181 24.4496 17.2775 24.4496 27.6419C24.4496 38.0065 32.8853 46.4421 43.2498 46.4421C53.6142 46.4421 62.0499 38.0065 62.0499 27.6419C62.0499 17.2775 53.6142 8.84181 43.2498 8.84181ZM43.2498 11.9752C51.9209 11.9752 58.9165 18.9709 58.9165 27.6419C58.9165 36.3131 51.9209 43.3087 43.2498 43.3087C34.5786 43.3087 27.583 36.3131 27.583 27.6419C27.583 18.9709 34.5786 11.9752 43.2498 11.9752ZM63.078 42.6478L73.6286 59.049L65.5015 57.4334C65.1128 57.3498 64.7069 57.4171 64.366 57.6217C64.0251 57.8262 63.7747 58.1526 63.6655 58.5348L61.5359 66.0255L53.2863 52.2927C53.6376 52.1874 53.9407 51.9621 54.143 51.6562L56.6889 47.764L61.2421 46.8827C61.5516 46.8242 61.8362 46.6738 62.0589 46.4511C62.2816 46.2284 62.432 45.9438 62.4905 45.6343L63.078 42.6478ZM23.4215 42.6721L23.9845 45.6341C24.043 45.9436 24.1934 46.2282 24.4161 46.4509C24.6388 46.6736 24.9235 46.824 25.233 46.8825L29.7861 47.7638L32.332 51.656C32.5343 51.9619 32.8374 52.1871 33.1887 52.2925L24.9636 66.0254L22.834 58.5348C22.7248 58.1525 22.4744 57.826 22.1335 57.6215C21.7926 57.4169 21.3867 57.3495 20.9981 57.4331L12.8709 59.0487L23.4215 42.6721Z" fill="#454545"/>
</svg>
