<svg width="81" height="64" viewBox="0 0 81 64" fill="none" xmlns="http://www.w3.org/2000/svg">
<path d="M33.5 11.5L17 3.5L5 11.5L2.5 15L5 28L11 37.5L19 41.5L25.5 38.5L31.5 31L35 20L33.5 11.5Z" fill="#98CA33"/>
<path d="M80.3817 33.5713C80.3817 30.4257 77.6927 27.8448 74.4154 27.8448H62.0624C63.2389 25.4251 64.5834 21.715 64.5834 17.6823C64.5834 13.8915 62.4826 10.9073 58.617 9.21358C57.1044 8.56834 55.4238 8.56834 53.9952 9.21358C52.5666 9.85882 51.4742 11.1493 51.054 12.6011L50.2977 15.3433C48.9532 20.3439 46.096 24.6993 42.3145 27.6028C41.8103 27.9254 41.3901 28.2481 40.8859 28.5707C39.9616 27.1189 38.3649 26.0704 36.4322 25.9897C36.8523 24.6186 37.0204 23.1668 37.0204 21.6344V10.5847C37.0204 9.61685 36.2641 8.81031 35.2557 8.72965C23.9952 7.60049 20.7179 1.47074 20.5498 1.14812C20.2137 0.502888 19.5414 0.0996148 18.7851 0.0996148C18.0288 0.0189602 17.3565 0.502888 17.0204 1.14812C16.8523 1.39009 13.575 7.60049 2.31451 8.72965C1.30611 8.81031 0.549805 9.61685 0.549805 10.5847V21.715C0.549805 35.023 17.1885 43.4111 17.8607 43.7337C18.1128 43.895 18.449 43.9757 18.7851 43.9757C19.1212 43.9757 19.3733 43.895 19.7095 43.7337C19.8775 43.6531 20.8019 43.1691 22.2305 42.2819V57.9289C22.2305 60.7518 24.6675 63.0908 27.6086 63.0908H36.2641C38.449 63.0908 40.3817 61.8003 41.2221 60.0259C46.6002 61.4777 51.5582 62.2036 56.9364 62.2036H70.5498C73.8271 62.2036 76.5162 59.6227 76.5162 56.4771C76.5162 55.4286 76.2641 54.4608 75.7599 53.6542C77.4406 52.6057 78.533 50.8313 78.533 48.815C78.533 47.7665 78.2809 46.7986 77.7767 45.9921C79.4574 44.9436 80.5498 43.1691 80.5498 41.1528C80.5498 39.701 79.9616 38.3299 79.0372 37.362C79.7935 36.3942 80.3817 35.1037 80.3817 33.5713ZM18.7851 39.943C15.5078 38.0879 4.49938 31.1516 4.49938 21.715V12.1978C12.3145 11.0686 16.6843 7.60049 18.7851 5.18085C20.97 7.60049 25.2557 10.988 33.0708 12.1978V21.715C33.1548 31.1516 22.0624 38.0879 18.7851 39.943ZM37.6927 58.0096C37.6927 58.8161 37.0204 59.4614 36.1801 59.4614H27.6086C26.7683 59.4614 26.096 58.8161 26.096 58.0096V39.6203C29.2053 37.2814 32.6506 33.8939 34.8355 29.7805H36.2641C37.1044 29.7805 37.7767 30.4257 37.7767 31.2323V58.0096H37.6927ZM70.7179 39.2977H74.4994C75.5918 39.2977 76.5162 40.1849 76.5162 41.2334C76.5162 42.2819 75.5918 43.1692 74.4994 43.1692H70.0456C68.9532 43.1692 68.1128 43.9757 68.1128 45.0242C68.1128 46.0727 68.9532 46.8793 70.0456 46.8793H72.5666C73.659 46.8793 74.5834 47.7665 74.5834 48.815C74.5834 49.8635 73.659 50.7507 72.5666 50.7507H68.617C67.5246 50.7507 66.6843 51.5572 66.6843 52.6057C66.6843 53.6542 67.5246 54.4608 68.617 54.4608H70.5498C71.6422 54.4608 72.5666 55.348 72.5666 56.3965C72.5666 57.445 71.6422 58.3322 70.5498 58.3322H56.8523C51.6422 58.3322 46.8523 57.6063 41.6422 56.2352V32.6034C42.6506 32.0388 43.7431 31.3936 44.7515 30.6677C49.2053 27.2802 52.5666 22.199 54.0792 16.3918L54.8355 13.6496C55.0036 13.085 55.4238 12.843 55.6759 12.6817C55.928 12.6011 56.4322 12.4398 57.0204 12.6817C59.5414 13.8109 60.7179 15.5046 60.7179 17.763C60.7179 23.4894 57.2725 28.732 57.2725 28.8126C56.8523 29.3772 56.8523 30.1031 57.1885 30.7483C57.5246 31.3129 58.1969 31.7162 58.8691 31.7162H74.4154C75.5078 31.7162 76.4322 32.6034 76.4322 33.6519C76.4322 34.7004 75.5078 35.5876 74.4154 35.5876H70.7179C69.6254 35.5876 68.7851 36.3942 68.7851 37.4427C68.7011 38.4912 69.6254 39.2977 70.7179 39.2977Z" fill="#454545"/>
<path d="M31.8945 56.7192C33.2869 56.7192 34.4156 55.6358 34.4156 54.2995C34.4156 52.9632 33.2869 51.8799 31.8945 51.8799C30.5022 51.8799 29.3735 52.9632 29.3735 54.2995C29.3735 55.6358 30.5022 56.7192 31.8945 56.7192Z" fill="#454545"/>
<path d="M23.7431 16.7143L16.8523 23.328L13.9111 20.5051C13.1548 19.7792 11.8943 19.7792 11.138 20.5051C10.3817 21.231 10.3817 22.4408 11.138 23.1667L15.5078 27.3607C15.8439 27.6834 16.3481 27.9253 16.8523 27.9253C17.3565 27.9253 17.8607 27.764 18.1969 27.3607L26.5162 19.3759C27.2725 18.65 27.2725 17.4402 26.5162 16.7143C25.7599 15.9884 24.4994 15.9884 23.7431 16.7143Z" fill="#454545"/>
</svg>
