<svg width="85" height="72" viewBox="0 0 85 72" fill="none" xmlns="http://www.w3.org/2000/svg">
<path d="M18 51.5L27.5 43.5L39 54.5L42.5 52L46 55.5L57.5 43L65 49.5L71.5 57.5L73 67.5H13V61.5L18 51.5Z" fill="#98CA33"/>
<path d="M42.5 2C32.2425 2 23.6013 8.60536 20.7988 17.7569C18.0405 18.2179 15.8462 20.5781 15.8462 23.5357V28.3214C15.8462 31.6148 18.5688 34.3036 21.9038 34.3036H22.5427C24.1811 34.3262 24.1811 31.8878 22.5427 31.9107H21.9038C19.8693 31.9107 18.2692 30.3305 18.2692 28.3214V23.5357C18.2692 21.5266 19.9145 19.9508 21.7098 19.9605C22.2622 19.9641 22.7469 19.5973 22.8882 19.0701C25.1649 10.5902 33.0498 4.39289 42.5 4.39289C51.9502 4.39289 59.8351 10.5902 62.1118 19.0701C62.2531 19.5975 62.7378 19.9637 63.2902 19.9605C65.0855 19.9514 66.7308 21.5266 66.7308 23.5357V28.3214C66.7308 30.3305 65.1306 31.9107 63.0961 31.9107C62.4317 31.9108 61.8912 32.4393 61.8846 33.0954C61.8791 33.6242 61.7471 34.0982 61.1369 34.5653C60.5267 35.0324 59.2959 35.5001 57.0385 35.5001H49.7077C49.4225 34.1446 48.1903 33.1072 46.7404 33.1072H43.1058C41.4487 33.1072 40.0769 34.4619 40.0769 36.0983V37.2946C40.0769 38.931 41.4487 40.2857 43.1058 40.2857H46.7404C48.1903 40.2857 49.4225 39.2484 49.7077 37.8928H57.0385C59.6272 37.8928 61.4176 37.3789 62.6205 36.4581C63.4818 35.7988 63.8692 34.9452 64.0805 34.1049C66.9315 33.6219 69.1538 31.2705 69.1538 28.3214V23.5357C69.1538 20.5781 66.9595 18.2179 64.2012 17.7569C61.3987 8.60536 52.7575 2 42.5 2ZM42.5 6.78578C32.4531 6.78578 24.3269 14.8106 24.3269 24.7322V28.3214C24.3269 33.1559 26.2664 37.5306 29.4073 40.7555L28 42C28 42 27.5626 42.4827 27 43C26.9065 43.1541 26.7541 43.5697 26.7375 43.7486C26.7209 43.9275 26.7453 44.1079 26.8089 44.2762C26.8725 44.4445 26.9737 44.5966 27.1049 44.721L38.0088 55.4887C38.236 55.713 38.5441 55.8391 38.8654 55.8391C39.1866 55.8391 39.4948 55.713 39.722 55.4887L42.5 52.7453L45.278 55.4887C45.5052 55.713 45.8134 55.8391 46.1346 55.8391C46.4559 55.8391 46.764 55.713 46.9912 55.4887L57.7247 44.8892C57.8951 44.7776 58.0342 44.6252 58.1289 44.4462C58.2237 44.2673 58.271 44.0676 58.2666 43.8657V43.8633V43.8608V43.8563C58.2664 43.6571 58.2159 43.4611 58.1196 43.2861C58.0234 43.111 57.8844 42.9624 57.7152 42.8539L54.9183 40.1037C54.7861 39.899 54.594 39.7389 54.3674 39.6446C54.1409 39.5502 53.8906 39.5261 53.6499 39.5756C53.3753 39.6246 53.1262 39.7659 52.9448 39.9754C50.1687 42.4016 46.5253 43.8755 42.5 43.8755C33.7535 43.8755 26.75 36.9592 26.75 28.3218V28.0954C27.369 27.9009 28.1656 27.5402 29.0216 26.8639C30.5959 25.6202 32.253 23.0982 33.4986 19.0824C36.1594 20.2826 39.5278 21.1434 42.5 21.1434C45.4722 21.1434 48.8406 20.2826 51.5014 19.0824C52.747 23.0982 54.4041 25.6202 55.9784 26.8639C56.8344 27.5402 57.631 27.9007 58.25 28.0954V28.3218C58.25 29.472 58.1245 30.5906 57.888 31.6658C57.8542 31.8194 57.8515 31.978 57.8798 32.1326C57.9082 32.2873 57.9671 32.4349 58.0532 32.5671C58.1394 32.6992 58.251 32.8134 58.3818 32.9029C58.5126 32.9925 58.66 33.0557 58.8155 33.089C58.9711 33.1223 59.1317 33.125 59.2883 33.097C59.4449 33.0689 59.5944 33.0108 59.7282 32.9257C59.8621 32.8406 59.9776 32.7303 60.0683 32.6011C60.1589 32.472 60.2229 32.3264 60.2566 32.1728C60.5296 30.9318 60.6731 29.643 60.6731 28.3218V24.7326C60.6731 14.811 52.5469 6.78578 42.5 6.78578ZM42.5 9.17867C51.2465 9.17867 58.25 16.0949 58.25 24.7322V25.4869C58.0169 25.3594 57.7692 25.2124 57.4928 24.9938C56.2245 23.9919 54.5338 21.8675 53.3683 17.2639C53.3232 17.0849 53.2368 16.9185 53.1159 16.778C52.9949 16.6374 52.8427 16.5265 52.6711 16.4537C52.4995 16.3808 52.3132 16.348 52.1267 16.358C51.9402 16.3681 51.7586 16.4205 51.596 16.5114C49.413 17.7279 45.393 18.7501 42.5 18.7501C39.607 18.7501 35.587 17.7279 33.404 16.5114C33.2269 16.4127 33.0275 16.3598 32.8243 16.3572C32.5511 16.3534 32.2846 16.4409 32.0681 16.6055C31.8516 16.7701 31.6978 17.0021 31.6316 17.2639C30.4662 21.8675 28.7755 23.992 27.5072 24.994C27.2307 25.2124 26.9831 25.3593 26.75 25.487V24.7322C26.75 16.0949 33.7535 9.17867 42.5 9.17867ZM43.1058 35.5001H46.7404C47.0969 35.5001 47.3462 35.746 47.3462 36.0983V37.2946C47.3462 37.6469 47.0969 37.8928 46.7404 37.8928H43.1058C42.7492 37.8928 42.5 37.6468 42.5 37.2946V36.0983C42.5 35.746 42.7492 35.5001 43.1058 35.5001ZM31.201 42.3678C32.0156 43.0075 32.8792 43.5873 33.7992 44.083C33.8564 44.1872 33.9289 44.2825 34.0145 44.3656L40.7868 51.0534L38.8654 52.9509L29.6747 43.8749L31.201 42.3678ZM53.7966 42.3768L55.3229 43.877L46.1346 52.9505L44.2132 51.053L50.9855 44.3652C51.0766 44.278 51.1533 44.1771 51.2127 44.0663C52.1252 43.5746 52.9886 43.0099 53.7966 42.3768ZM54.2173 39.7011C53.9544 39.7132 53.7026 39.8095 53.5 39.9754C53.2974 40.1412 53.155 40.3677 53.0943 40.6206C53.0336 40.8735 56.267 44.1137 56.3727 44.3517C56.4784 44.5897 56.6597 44.7874 56.8892 44.9146C63.3121 48.6523 71.5769 57.4701 71.5769 65.4101V66.6066H13.4231V65.4101C13.4231 57.4711 21.7138 49.0419 28.1352 45.3036C28.3657 45.1741 28.5468 44.9735 28.6507 44.7327C28.7547 44.4919 28.7758 44.2241 28.7108 43.9703C28.6458 43.7164 28.4983 43.4907 28.2909 43.3276C28.0835 43.1645 27.8277 43.0731 27.5626 43.0673C27.3308 43.0625 27.1978 42.8806 27 43C19.8621 47.1557 11 56.6186 11 65.4107V67.8036C11 68.1209 11.1277 68.4251 11.3549 68.6495C11.5821 68.8739 11.8902 69 12.2115 69H72.7885C73.1098 69 73.4179 68.8739 73.6451 68.6495C73.8723 68.4251 74 68.1209 74 67.8036V65.4107C74 56.6175 65.2592 47.0088 58.1196 42.8539C57.912 42.727 54.4613 39.69 54.2173 39.7011ZM39.0263 45.9311C40.1514 46.1454 41.3108 46.2675 42.5 46.2675C43.684 46.2675 44.8405 46.1553 45.9619 45.9428L42.5 49.3616L39.0263 45.9311Z" fill="#454545"/>
</svg>
