<svg width="71" height="71" viewBox="0 0 71 71" fill="none" xmlns="http://www.w3.org/2000/svg">
<path d="M35.0784 0.00841219C34.8232 0.0386177 34.5795 0.13109 34.3685 0.277685L30.5253 2.8725L25.972 1.94228C25.6639 1.87452 25.3425 1.90138 25.0499 2.0193C24.7572 2.13723 24.507 2.34074 24.332 2.60322L21.7861 6.49544L17.233 7.3767C16.9235 7.43521 16.6388 7.58564 16.4161 7.80834C16.1934 8.03104 16.043 8.31568 15.9845 8.62514L15.1032 13.1783L11.211 15.7242C10.9485 15.8992 10.745 16.1494 10.6271 16.4421C10.5092 16.7347 10.4823 17.0561 10.5501 17.3643L11.4803 21.9174L8.88553 25.7607C8.70875 26.0206 8.61421 26.3276 8.61421 26.6419C8.61421 26.9563 8.70875 27.2633 8.88553 27.5232L11.4803 31.342L10.5501 35.8951C10.4823 36.2033 10.5092 36.5247 10.6271 36.8174C10.745 37.11 10.9485 37.3602 11.211 37.5353L13.4142 38.9795L0.244282 59.4688C0.0792213 59.7287 -0.0056409 60.0313 0.000291038 60.3391C0.00622297 60.6469 0.102686 60.9461 0.277636 61.1994C0.452587 61.4527 0.698272 61.6489 0.984019 61.7634C1.26977 61.8779 1.58291 61.9056 1.88436 61.8432L12.1902 59.7869L14.9319 69.3585C15.0114 69.657 15.1774 69.9253 15.4091 70.1298C15.6407 70.3342 15.9275 70.4655 16.2336 70.5074C16.5397 70.5492 16.8513 70.4997 17.1293 70.365C17.4073 70.2302 17.6393 70.0163 17.796 69.7501L29.2524 50.6562L30.5253 50.3869L34.3685 52.9817C34.6258 53.1664 34.9331 53.2689 35.2498 53.2754C35.5664 53.2689 35.8737 53.1664 36.131 52.9817L39.9742 50.3869L41.2472 50.6562L52.7035 69.7501C52.8603 70.0163 53.0922 70.2302 53.3702 70.365C53.6482 70.4997 53.9598 70.5492 54.2659 70.5074C54.572 70.4655 54.8589 70.3342 55.0905 70.1298C55.3221 69.9253 55.4881 69.657 55.5676 69.3585L58.3093 59.7869L68.6152 61.8432C68.9166 61.9056 69.2298 61.8779 69.5155 61.7634C69.8012 61.6489 70.0469 61.4527 70.2219 61.1994C70.3968 60.9461 70.4933 60.6469 70.4992 60.3391C70.5051 60.0313 70.4203 59.7287 70.2552 59.4688L57.0853 38.9551L59.264 37.5353C59.5265 37.3603 59.73 37.11 59.8479 36.8174C59.9659 36.5247 59.9927 36.2033 59.9249 35.8951L58.9947 31.342L61.5895 27.5232C61.7663 27.2633 61.8609 26.9563 61.8609 26.6419C61.8609 26.3276 61.7663 26.0206 61.5895 25.7607L58.9947 21.9174L59.9249 17.3643C59.9927 17.0561 59.9659 16.7347 59.8479 16.442C59.73 16.1494 59.5265 15.8992 59.264 15.7242L55.3718 13.1783L54.4905 8.62514C54.432 8.31569 54.2816 8.03104 54.0589 7.80834C53.8362 7.58564 53.5516 7.43522 53.2421 7.3767L48.6889 6.49544L46.143 2.60322C45.968 2.34074 45.7178 2.13723 45.4251 2.0193C45.1325 1.90138 44.8111 1.87452 44.503 1.94228L39.9742 2.8725L36.131 0.277685C35.8235 0.0652432 35.4501 -0.0302608 35.0784 0.00841219ZM35.2498 3.46L38.7503 5.85898C38.9267 5.98146 39.1263 6.06639 39.3369 6.1085C39.5474 6.15061 39.7643 6.149 39.9742 6.10377L44.0868 5.22251L46.4123 8.77202C46.5283 8.95 46.6792 9.10252 46.856 9.22035C47.0327 9.33818 47.2316 9.41885 47.4405 9.45744L51.6264 10.2408L52.4097 14.4268C52.4483 14.6356 52.529 14.8345 52.6468 15.0112C52.7647 15.188 52.9172 15.3389 53.0952 15.4549L56.6447 17.7804L55.7635 21.9174C55.7182 22.1273 55.7166 22.3443 55.7587 22.5549C55.8008 22.7654 55.8858 22.965 56.0082 23.1414L58.4072 26.6419L56.0082 30.118C55.8858 30.2944 55.8008 30.494 55.7587 30.7046C55.7166 30.9151 55.7182 31.1321 55.7635 31.342L56.6447 35.479L53.0952 37.8045C52.9172 37.9205 52.7647 38.0714 52.6468 38.2482C52.529 38.4249 52.4483 38.6238 52.4097 38.8327L51.6264 43.0187L47.4405 43.802C47.2316 43.8406 47.0327 43.9212 46.856 44.0391C46.6792 44.1569 46.5283 44.3095 46.4123 44.4874L44.0868 48.0369L39.9742 47.1556C39.7643 47.1104 39.5474 47.1088 39.3369 47.1509C39.1263 47.193 38.9267 47.278 38.7503 47.4004L35.2498 49.7994L31.7492 47.4004C31.5728 47.278 31.3732 47.193 31.1627 47.1509C30.9521 47.1088 30.7352 47.1104 30.5253 47.1556L26.3882 48.0369L24.0627 44.4874C23.9468 44.3095 23.7958 44.1569 23.6191 44.0391C23.4423 43.9212 23.2434 43.8406 23.0345 43.802L18.8486 43.0187L18.0653 38.8327C18.0267 38.6238 17.946 38.4249 17.8282 38.2482C17.7103 38.0714 17.5578 37.9205 17.3798 37.8045L13.8303 35.479L14.7115 31.342C14.7568 31.1321 14.7584 30.9151 14.7163 30.7046C14.6742 30.494 14.5893 30.2944 14.4668 30.118L12.0678 26.6419L14.4668 23.1414C14.5893 22.965 14.6742 22.7654 14.7163 22.5549C14.7584 22.3443 14.7568 22.1273 14.7115 21.9174L13.8303 17.7804L17.3798 15.4549C17.5578 15.3389 17.7103 15.188 17.8282 15.0112C17.946 14.8345 18.0267 14.6356 18.0653 14.4268L18.8486 10.2408L23.0345 9.45744C23.2434 9.41886 23.4423 9.33823 23.6191 9.2204C23.7958 9.10256 23.9468 8.95001 24.0627 8.77202L26.3882 5.22251L30.5253 6.10377C30.7352 6.149 30.9521 6.15061 31.1627 6.1085C31.3732 6.06639 31.5728 5.98146 31.7492 5.85898L35.2498 3.46ZM35.2498 7.84181C24.8853 7.84181 16.4496 16.2775 16.4496 26.6419C16.4496 37.0065 24.8853 45.4421 35.2498 45.4421C45.6142 45.4421 54.0499 37.0065 54.0499 26.6419C54.0499 16.2775 45.6142 7.84181 35.2498 7.84181ZM35.2498 10.9752C43.9209 10.9752 50.9165 17.9709 50.9165 26.6419C50.9165 35.3131 43.9209 42.3087 35.2498 42.3087C26.5786 42.3087 19.583 35.3131 19.583 26.6419C19.583 17.9709 26.5786 10.9752 35.2498 10.9752ZM55.078 41.6478L65.6286 58.049L57.5015 56.4334C57.1128 56.3498 56.7069 56.4171 56.366 56.6217C56.0251 56.8262 55.7747 57.1526 55.6655 57.5348L53.5359 65.0255L45.2863 51.2927C45.6376 51.1874 45.9407 50.9621 46.143 50.6562L48.6889 46.764L53.2421 45.8827C53.5516 45.8242 53.8362 45.6738 54.0589 45.4511C54.2816 45.2284 54.432 44.9438 54.4905 44.6343L55.078 41.6478ZM15.4215 41.6721L15.9845 44.6341C16.043 44.9436 16.1934 45.2282 16.4161 45.4509C16.6388 45.6736 16.9235 45.824 17.233 45.8825L21.7861 46.7638L24.332 50.656C24.5343 50.9619 24.8374 51.1871 25.1887 51.2925L16.9636 65.0254L14.834 57.5348C14.7248 57.1525 14.4744 56.826 14.1335 56.6215C13.7926 56.4169 13.3867 56.3495 12.9981 56.4331L4.87092 58.0487L15.4215 41.6721Z" fill="#454545"/>
</svg>
