<svg width="194" height="39" viewBox="0 0 194 39" fill="none" xmlns="http://www.w3.org/2000/svg">
<g clip-path="url(#clip0)">
<path fill-rule="evenodd" clip-rule="evenodd" d="M21.7563 5.9075L33.7687 1.49315C34.053 1.38866 34.3742 1.48049 34.5548 1.71786L45.7305 16.4119C45.8682 16.5929 45.9011 16.8296 45.8176 17.0396L37.759 37.3145C37.6242 37.6537 37.2315 37.8226 36.8819 37.6918C36.8814 37.6916 36.8808 37.6914 36.8802 37.6911L21.7551 31.9839C21.584 31.9194 21.4472 31.7902 21.3759 31.6261L15.9182 19.0591C15.8465 18.894 15.8473 18.7076 15.9203 18.543L21.3736 6.26259C21.4463 6.09881 21.5845 5.97066 21.7563 5.9075Z" fill="#236AB8"/>
<path fill-rule="evenodd" clip-rule="evenodd" d="M11.9581 0H33.2984C33.392 0 33.468 0.0736747 33.468 0.164557C33.468 0.233508 33.4237 0.295148 33.357 0.318976L20.3655 4.96111C20.1888 5.02426 20.0471 5.15585 19.9743 5.32439L14.8 17.3052C14.6552 17.6405 14.2577 17.7984 13.9122 17.6579C13.8785 17.6442 13.8461 17.6279 13.8151 17.6092L7.85515 13.9992C7.63532 13.8661 7.35652 13.8661 7.13669 13.9992L1.10953 17.6499C1.03008 17.698 0.925457 17.6745 0.875858 17.5974C0.841841 17.5445 0.841532 17.4775 0.87506 17.4244L11.8134 0.078671C11.8442 0.0297999 11.899 0 11.9581 0Z" fill="#98CA33"/>
<path fill-rule="evenodd" clip-rule="evenodd" d="M7.84431 15.5507L14.1335 19.2652C14.2561 19.3376 14.3518 19.4458 14.407 19.5744L20.1039 32.8488C20.1211 32.8889 20.1539 32.9208 20.1953 32.9375L33.8056 38.4367C33.892 38.4716 33.9329 38.568 33.8969 38.6519C33.8706 38.7132 33.8088 38.7532 33.7404 38.7532H12.2575C12.0136 38.7532 11.7885 38.6261 11.6679 38.4205L0.82935 19.9381C0.646499 19.6263 0.754654 19.2299 1.07254 19.0467L7.14516 15.5471C7.36097 15.4227 7.62991 15.4241 7.84431 15.5507Z" fill="#091D34"/>
<path d="M51.4023 38.7418L52.8814 33.6581H59.9108L61.3898 38.7418H67.1895L59.9108 16.7126H53.2636L45.9516 38.7418H51.4023ZM58.9303 29.8333H53.8951L56.3047 21.4574H56.5539L58.9303 29.8333ZM73.3615 38.9193C75.8874 38.9193 77.8816 37.7412 78.4632 35.9821H78.7125V38.7418H83.9804V15.5506H78.6626V24.1686H78.4133C77.7652 22.4257 75.8708 21.3121 73.3947 21.3121C69.423 21.3121 66.8472 24.1364 66.8472 29.0748V31.1405C66.8472 36.0789 69.4064 38.9193 73.3615 38.9193ZM75.4719 34.9492C73.5775 34.9492 72.3145 33.529 72.3145 30.8177V29.4298C72.3145 26.7347 73.5609 25.3145 75.4387 25.3145C77.2999 25.3145 78.6626 26.7185 78.6626 29.2039V30.9146C78.6626 33.529 77.3498 34.9492 75.4719 34.9492ZM91.2325 39C93.8415 39 95.2707 37.8057 95.8689 36.6276H96.1182V38.7418H101.087V27.2834C101.087 22.8291 97.6969 21.2476 93.4926 21.2476C88.0418 21.2476 86.1474 23.9427 86.0144 26.7185H90.9832C91.1162 25.7341 91.8972 25.0078 93.4095 25.0078C94.9051 25.0078 95.8689 25.7179 95.8689 27.122V28.5583H91.7311C87.6098 28.5583 85.3663 30.6079 85.3663 33.7388C85.3663 37.0311 87.7593 39 91.2325 39ZM93.0605 35.4011C91.7809 35.4011 90.5844 34.7071 90.5844 33.3515C90.5844 32.1895 91.4652 31.3826 93.127 31.3826H95.8689V33.061C95.8689 34.4328 94.5561 35.4011 93.0605 35.4011ZM108.422 38.7418V28.5422C108.422 26.3796 109.602 25.4113 111.098 25.4113C112.494 25.4113 113.74 26.2182 113.74 28.4615V38.7418H118.792V28.5745C118.792 26.4765 119.972 25.4113 121.501 25.4113C122.963 25.4113 124.126 26.2344 124.126 28.4131V38.7418H129.411V26.7831C129.411 23.4424 127.35 21.2476 123.794 21.2476C120.72 21.2476 118.958 22.9582 118.426 24.4914H118.21C117.695 22.6193 116.067 21.2476 113.391 21.2476C110.217 21.2476 108.904 23.1035 108.522 24.4269H108.273V21.5058H103.121V38.7418H108.422ZM136.513 39C139.122 39 140.552 37.8057 141.15 36.6276H141.399V38.7418H146.368V27.2834C146.368 22.8291 142.978 21.2476 138.773 21.2476C133.323 21.2476 131.428 23.9427 131.295 26.7185H136.264C136.397 25.7341 137.178 25.0078 138.69 25.0078C140.186 25.0078 141.15 25.7179 141.15 27.122V28.5583H137.012C132.891 28.5583 130.647 30.6079 130.647 33.7388C130.647 37.0311 133.04 39 136.513 39ZM138.341 35.4011C137.062 35.4011 135.865 34.7071 135.865 33.3515C135.865 32.1895 136.746 31.3826 138.408 31.3826H141.15V33.061C141.15 34.4328 139.837 35.4011 138.341 35.4011ZM153.703 38.7418V29.22C153.703 26.8961 154.966 25.5081 156.811 25.5081C158.24 25.5081 159.586 26.2828 159.586 28.7197V38.7418H164.887V27.3479C164.887 23.2649 162.577 21.2476 159.021 21.2476C155.697 21.2476 154.252 23.168 153.803 24.4914H153.554V21.5058H148.402V38.7418H153.703ZM174.549 38.7902C175.795 38.7902 177.025 38.6772 177.424 38.5965V34.9008C177.091 34.9331 176.477 34.9654 175.828 34.9654C174.2 34.9654 173.435 34.4489 173.435 32.9319V25.6211H177.324V21.764H173.435V17.5034H168.317V21.764H165.492V25.6211H168.201V33.8357C168.201 37.4346 170.012 38.7902 174.549 38.7902ZM183.646 39C186.255 39 187.684 37.8057 188.282 36.6276H188.531V38.7418H193.5V27.2834C193.5 22.8291 190.11 21.2476 185.906 21.2476C180.455 21.2476 178.56 23.9427 178.427 26.7185H183.396C183.529 25.7341 184.31 25.0078 185.822 25.0078C187.318 25.0078 188.282 25.7179 188.282 27.122V28.5583H184.144C180.023 28.5583 177.779 30.6079 177.779 33.7388C177.779 37.0311 180.172 39 183.646 39ZM185.474 35.4011C184.194 35.4011 182.997 34.7071 182.997 33.3515C182.997 32.1895 183.878 31.3826 185.54 31.3826H188.282V33.061C188.282 34.4328 186.969 35.4011 185.474 35.4011Z" fill="#091D34"/>
</g>
<defs>
<clipPath id="clip0">
<rect width="193" height="39" fill="white" transform="translate(0.5)"/>
</clipPath>
</defs>
</svg>
