<svg width="350" height="325" viewBox="0 0 350 325" fill="none" xmlns="http://www.w3.org/2000/svg">
<rect width="40.0936" height="176.239" rx="20.0468" transform="matrix(0.642056 0.766657 -0.764651 0.644445 187.728 125.864)" fill="#F7F7F7"/>
<rect width="40" height="245" rx="20" transform="matrix(0.642056 0.766657 -0.764651 0.644445 259.001 1)" fill="#98CA33" fill-opacity="0.11"/>
<rect width="40" height="245" rx="20" transform="matrix(0.642056 0.766657 -0.764651 0.644445 311.001 66)" fill="#98CA33" fill-opacity="0.11"/>
<rect width="40" height="207" rx="20" transform="matrix(0.642056 0.766657 -0.764651 0.644445 309.001 160)" fill="#98CA33" fill-opacity="0.11"/>
<rect width="40" height="200" rx="20" transform="matrix(0.641479 0.767141 -0.764165 0.645021 157 0)" fill="#98CA33" fill-opacity="0.11"/>
<path d="M132.072 108.07C132.536 102.359 137.306 97.96 143.036 97.96H222.902C228.623 97.96 233.389 102.345 233.864 108.046L242.285 209.061C242.809 215.357 237.935 220.801 231.62 220.971L134.918 223.583C128.376 223.76 123.127 218.22 123.657 211.697L132.072 108.07Z" fill="#236AB8"/>
<path fill-rule="evenodd" clip-rule="evenodd" d="M143.022 84.322C146.076 63.7992 158.456 52.5469 175.298 52.6672C192.502 52.79 207.484 67.6375 207.264 84.322H143.022ZM139.635 88.1039C142.319 88.1039 139.098 88.1047 141.782 88.1036C144.466 88.1025 143.608 88.1173 144.818 88.1036C145.563 88.0953 157.523 88.0816 158.958 88.1036C179.596 88.0439 183.943 88.1514 204.58 88.2638H208.337H210.827C229.299 87.8656 229.595 95.2027 231.187 111.706L238.171 191.329C239.304 205.849 240.672 217.156 225.079 218.207C209.215 219.516 188.732 218.427 172.365 218.427C159.966 218.427 130.761 220.341 121.331 216.996C109.303 211.886 113.387 198.67 114.508 186.054C115.067 179.759 115.465 173.715 115.977 167.547L118.163 149.811L81.9184 149.237C77.1785 149.237 72.8846 148.592 72.8846 151.292C72.8846 153.584 75.1262 153.452 79.8622 153.452H113.335C112.798 157.773 112.798 158.263 112.261 163.174C111.188 163.174 110.993 163.174 110.114 163.174C108.504 163.174 108.068 163.204 106.894 163.223C101.883 163.306 92.7439 163.174 88.45 163.223C84.3642 163.271 84.1561 168.034 88.9867 167.494C90.597 167.494 93.4492 167.567 99.1847 167.494C103.484 167.44 107.236 167.494 111.53 167.494C111.478 189.674 100.99 215.02 119.957 221.041C129.024 224.628 228.411 222.319 230.366 221.662C247.432 215.927 242.923 199.168 240.98 179.161L240.411 170.461C240.388 170.203 240.364 170.003 240.337 169.744C240.307 169.439 240.196 168.579 240.162 168.264L234.678 105.529C233.085 81.9646 221.618 85.4238 212.836 84.3224C207.846 36.5612 141.104 37.8956 138.254 84.322C126.411 85.3653 119.783 87.2595 117.939 99.9554C116.32 111.102 115.938 124.021 114.787 135.261C101.851 135.261 75.1291 134.897 59.4492 135.09C57.2628 135.117 56.7655 135.09 54.6191 135.09C48.7314 135.09 48.195 140.491 54.6191 140.491C59.4589 140.491 110.439 140.491 120.126 140.491C120.126 134.861 120.119 126.759 120.126 121.281L121.378 105.802C122.457 93.9404 127.29 88.1036 139.635 88.1039Z" fill="#091D34"/>
<path fill-rule="evenodd" clip-rule="evenodd" d="M169.777 267C235.614 267 289.001 213.506 289.001 147.5C289.001 136.175 287.429 125.219 284.493 114.838C284.238 113.936 284.626 112.973 285.443 112.513C286.56 111.883 287.974 112.449 288.324 113.683C291.37 124.43 293.001 135.774 293.001 147.5C293.001 215.707 237.831 271 169.777 271C112.422 271 64.2199 231.728 50.4796 178.551C50.1554 177.296 51.1118 176.083 52.4079 176.083C53.3332 176.083 54.1378 176.718 54.3697 177.614C67.6885 229.039 114.315 267 169.777 267ZM255.266 62.1094C256.418 61.4601 256.64 59.8931 255.693 58.9696C233.496 37.3283 203.189 24 169.777 24C114.814 24 68.2554 60.0652 52.3763 109.872C51.9683 111.151 52.9329 112.445 54.2759 112.445C55.16 112.445 55.9395 111.865 56.2085 111.023C71.5936 62.8606 116.628 28 169.777 28C202.077 28 231.38 40.8755 252.853 61.7873C253.498 62.416 254.481 62.5518 255.266 62.1094Z" fill="#236AB8"/>
<ellipse cx="242.877" cy="240.987" rx="35.8769" ry="35.987" fill="#98CA33"/>
<path d="M235.023 249.522L225.256 239.806L222 243.045L235.023 256L262.93 228.239L259.674 225L235.023 249.522Z" fill="white"/>
<path fill-rule="evenodd" clip-rule="evenodd" d="M46.0865 223.593C47.0407 223.105 48.21 223.458 48.7518 224.383C56.9905 238.442 67.4535 250.758 79.5325 261.001C80.3367 261.683 80.4912 262.868 79.8759 263.724C79.2002 264.665 77.8695 264.839 76.9861 264.091C64.5354 253.541 53.7535 240.849 45.2702 226.358C44.6945 225.375 45.0721 224.112 46.0865 223.593ZM121.846 287.455C121.074 288.528 121.531 290.041 122.776 290.486C137.558 295.764 153.253 298.705 169.297 299.001C170.639 299.025 171.609 297.733 171.23 296.445C170.981 295.597 170.204 295.014 169.32 294.997C153.752 294.704 138.522 291.85 124.175 286.734C123.324 286.431 122.373 286.721 121.846 287.455Z" fill="#236AB8"/>
<circle cx="36.5" cy="30.5" r="5" stroke="#98CA33" stroke-width="3"/>
<circle cx="343.5" cy="163.5" r="5" stroke="#98CA33" stroke-width="3"/>
<circle cx="31" cy="169" r="4.5" stroke="#98CA33" stroke-width="3"/>
<path d="M312.804 60L318 51L323.196 60H312.804Z" stroke="#236AB8" stroke-width="2"/>
<path d="M319.25 229.531L314 226.5L319.25 223.469V229.531Z" stroke="#236AB8" stroke-width="2"/>
<path d="M7.59808 225.5L5 230L2.40192 225.5H7.59808Z" stroke="#236AB8" stroke-width="2"/>
</svg>
