<svg width="350" height="325" viewBox="0 0 350 325" fill="none" xmlns="http://www.w3.org/2000/svg">
<rect width="40.0936" height="176.239" rx="20.0468" transform="matrix(0.642056 0.766657 -0.764651 0.644445 187.728 125.864)" fill="#F7F7F7"/>
<rect width="40" height="245" rx="20" transform="matrix(0.642056 0.766657 -0.764651 0.644445 259.001 1)" fill="#98CA33" fill-opacity="0.11"/>
<rect width="40" height="245" rx="20" transform="matrix(0.642056 0.766657 -0.764651 0.644445 311.001 66)" fill="#98CA33" fill-opacity="0.11"/>
<rect width="40" height="207" rx="20" transform="matrix(0.642056 0.766657 -0.764651 0.644445 309.001 160)" fill="#98CA33" fill-opacity="0.11"/>
<rect width="40" height="200" rx="20" transform="matrix(0.641479 0.767141 -0.764165 0.645021 157 0)" fill="#98CA33" fill-opacity="0.11"/>
<path d="M133.072 108.07C133.536 102.359 138.306 97.96 144.036 97.96H223.902C229.623 97.96 234.389 102.345 234.864 108.046L243.285 209.061C243.809 215.357 238.935 220.801 232.62 220.971L135.918 223.583C129.376 223.76 124.127 218.22 124.657 211.697L133.072 108.07Z" fill="#236AB8"/>
<path fill-rule="evenodd" clip-rule="evenodd" d="M144.022 84.322C147.076 63.7992 159.456 52.5469 176.298 52.6672C193.502 52.79 208.484 67.6375 208.264 84.322H144.022ZM140.635 88.1039C143.319 88.1039 140.098 88.1047 142.782 88.1036C145.466 88.1025 144.608 88.1173 145.818 88.1036C146.563 88.0953 158.523 88.0816 159.958 88.1036C180.596 88.0439 184.943 88.1514 205.58 88.2638H209.337H211.827C230.299 87.8656 230.595 95.2027 232.187 111.706L239.171 191.329C240.304 205.849 241.672 217.156 226.079 218.207C210.215 219.516 189.732 218.427 173.365 218.427C160.966 218.427 131.761 220.341 122.331 216.996C110.303 211.886 114.387 198.67 115.508 186.054C116.067 179.759 116.465 173.715 116.977 167.547L119.163 149.811L82.9184 149.237C78.1785 149.237 73.8846 148.592 73.8846 151.292C73.8846 153.584 76.1262 153.452 80.8622 153.452H114.335C113.798 157.773 113.798 158.263 113.261 163.174C112.188 163.174 111.993 163.174 111.114 163.174C109.504 163.174 109.068 163.204 107.894 163.223C102.883 163.306 93.7439 163.174 89.45 163.223C85.3642 163.271 85.1561 168.034 89.9867 167.494C91.597 167.494 94.4492 167.567 100.185 167.494C104.484 167.44 108.236 167.494 112.53 167.494C112.478 189.674 101.99 215.02 120.957 221.041C130.024 224.628 229.411 222.319 231.366 221.662C248.432 215.927 243.923 199.168 241.98 179.161L241.411 170.461C241.388 170.203 241.364 170.003 241.337 169.744C241.307 169.439 241.196 168.579 241.162 168.264L235.678 105.529C234.085 81.9646 222.618 85.4238 213.836 84.3224C208.846 36.5612 142.104 37.8956 139.254 84.322C127.411 85.3653 120.783 87.2595 118.939 99.9554C117.32 111.102 116.938 124.021 115.787 135.261C102.851 135.261 76.1291 134.897 60.4492 135.09C58.2628 135.117 57.7655 135.09 55.6191 135.09C49.7314 135.09 49.195 140.491 55.6191 140.491C60.4589 140.491 111.439 140.491 121.126 140.491C121.126 134.861 121.119 126.759 121.126 121.281L122.378 105.802C123.457 93.9404 128.29 88.1036 140.635 88.1039Z" fill="#091D34"/>
<path fill-rule="evenodd" clip-rule="evenodd" d="M170.777 267C236.614 267 290.001 213.506 290.001 147.5C290.001 136.175 288.429 125.219 285.493 114.838C285.238 113.936 285.626 112.973 286.443 112.513C287.56 111.883 288.974 112.449 289.324 113.683C292.37 124.43 294.001 135.774 294.001 147.5C294.001 215.707 238.831 271 170.777 271C113.422 271 65.2199 231.728 51.4796 178.551C51.1554 177.296 52.1118 176.083 53.4079 176.083C54.3332 176.083 55.1378 176.718 55.3697 177.614C68.6885 229.039 115.315 267 170.777 267ZM256.266 62.1094C257.418 61.4601 257.64 59.8931 256.693 58.9696C234.496 37.3283 204.189 24 170.777 24C115.814 24 69.2554 60.0652 53.3763 109.872C52.9683 111.151 53.9329 112.445 55.2759 112.445C56.16 112.445 56.9395 111.865 57.2085 111.023C72.5936 62.8606 117.628 28 170.777 28C203.077 28 232.38 40.8755 253.853 61.7873C254.498 62.416 255.481 62.5518 256.266 62.1094Z" fill="#236AB8"/>
<ellipse cx="243.877" cy="240.987" rx="35.8769" ry="35.987" fill="#98CA33"/>
<path d="M236.023 249.522L226.256 239.806L223 243.045L236.023 256L263.93 228.239L260.674 225L236.023 249.522Z" fill="white"/>
<path fill-rule="evenodd" clip-rule="evenodd" d="M47.0865 223.593C48.0407 223.105 49.21 223.458 49.7518 224.383C57.9905 238.442 68.4535 250.758 80.5325 261.001C81.3367 261.683 81.4912 262.868 80.8759 263.724C80.2002 264.665 78.8695 264.839 77.9861 264.091C65.5354 253.541 54.7535 240.849 46.2702 226.358C45.6945 225.375 46.0721 224.112 47.0865 223.593ZM122.846 287.455C122.074 288.528 122.531 290.041 123.776 290.486C138.558 295.764 154.253 298.705 170.297 299.001C171.639 299.025 172.609 297.733 172.23 296.445C171.981 295.597 171.204 295.014 170.32 294.997C154.752 294.704 139.522 291.85 125.175 286.734C124.324 286.431 123.373 286.721 122.846 287.455Z" fill="#236AB8"/>
<circle cx="36.5" cy="30.5" r="5" stroke="#98CA33" stroke-width="3"/>
<circle cx="343.5" cy="163.5" r="5" stroke="#98CA33" stroke-width="3"/>
<circle cx="31" cy="169" r="4.5" stroke="#98CA33" stroke-width="3"/>
<path d="M312.804 60L318 51L323.196 60H312.804Z" stroke="#236AB8" stroke-width="2"/>
<path d="M319.25 229.531L314 226.5L319.25 223.469V229.531Z" stroke="#236AB8" stroke-width="2"/>
<path d="M7.59808 225.5L5 230L2.40192 225.5H7.59808Z" stroke="#236AB8" stroke-width="2"/>
<circle cx="184" cy="148" r="37" fill="white"/>
<path d="M161.773 169.923L162.254 168.405H164.541L165.022 169.923H166.909L164.541 163.347H162.379L160 169.923H161.773ZM164.222 167.264H162.584L163.368 164.763H163.449L164.222 167.264ZM168.917 169.976C169.739 169.976 170.387 169.624 170.577 169.099H170.658V169.923H172.371V163H170.641V165.573H170.56C170.35 165.052 169.733 164.72 168.928 164.72C167.636 164.72 166.798 165.563 166.798 167.037V167.654C166.798 169.128 167.63 169.976 168.917 169.976ZM169.603 168.791C168.987 168.791 168.576 168.367 168.576 167.557V167.143C168.576 166.339 168.982 165.915 169.593 165.915C170.198 165.915 170.641 166.334 170.641 167.076V167.586C170.641 168.367 170.214 168.791 169.603 168.791ZM174.731 170C175.579 170 176.044 169.643 176.239 169.292H176.32V169.923H177.936V166.502C177.936 165.173 176.834 164.701 175.466 164.701C173.693 164.701 173.076 165.505 173.033 166.334H174.65C174.693 166.04 174.947 165.823 175.439 165.823C175.925 165.823 176.239 166.035 176.239 166.454V166.883H174.893C173.552 166.883 172.822 167.495 172.822 168.429C172.822 169.412 173.601 170 174.731 170ZM175.325 168.926C174.909 168.926 174.52 168.719 174.52 168.314C174.52 167.967 174.806 167.726 175.347 167.726H176.239V168.227C176.239 168.637 175.812 168.926 175.325 168.926ZM180.323 169.923V166.878C180.323 166.233 180.707 165.944 181.193 165.944C181.647 165.944 182.053 166.184 182.053 166.854V169.923H183.696V166.888C183.696 166.262 184.08 165.944 184.577 165.944C185.053 165.944 185.432 166.189 185.432 166.84V169.923H187.151V166.353C187.151 165.356 186.48 164.701 185.323 164.701C184.323 164.701 183.75 165.211 183.577 165.669H183.507C183.339 165.11 182.81 164.701 181.939 164.701C180.907 164.701 180.48 165.255 180.355 165.65H180.274V164.778H178.598V169.923H180.323ZM189.461 170C190.31 170 190.775 169.643 190.97 169.292H191.051V169.923H192.667V166.502C192.667 165.173 191.564 164.701 190.197 164.701C188.423 164.701 187.807 165.505 187.764 166.334H189.38C189.423 166.04 189.678 165.823 190.169 165.823C190.656 165.823 190.97 166.035 190.97 166.454V166.883H189.623C188.283 166.883 187.553 167.495 187.553 168.429C187.553 169.412 188.331 170 189.461 170ZM190.056 168.926C189.64 168.926 189.25 168.719 189.25 168.314C189.25 167.967 189.537 167.726 190.078 167.726H190.97V168.227C190.97 168.637 190.543 168.926 190.056 168.926ZM195.053 169.923V167.081C195.053 166.387 195.464 165.972 196.064 165.972C196.529 165.972 196.967 166.204 196.967 166.931V169.923H198.692V166.522C198.692 165.303 197.94 164.701 196.783 164.701C195.702 164.701 195.232 165.274 195.086 165.669H195.005V164.778H193.329V169.923H195.053ZM201.835 169.937C202.24 169.937 202.64 169.904 202.77 169.88V168.776C202.662 168.786 202.462 168.796 202.251 168.796C201.721 168.796 201.473 168.641 201.473 168.189V166.006H202.738V164.855H201.473V163.583H199.808V164.855H198.888V166.006H199.77V168.458C199.77 169.533 200.359 169.937 201.835 169.937ZM204.794 170C205.643 170 206.108 169.643 206.302 169.292H206.384V169.923H208V166.502C208 165.173 206.897 164.701 205.529 164.701C203.756 164.701 203.14 165.505 203.097 166.334H204.713C204.756 166.04 205.01 165.823 205.502 165.823C205.989 165.823 206.302 166.035 206.302 166.454V166.883H204.956C203.616 166.883 202.886 167.495 202.886 168.429C202.886 169.412 203.664 170 204.794 170ZM205.389 168.926C204.973 168.926 204.583 168.719 204.583 168.314C204.583 167.967 204.87 167.726 205.41 167.726H206.302V168.227C206.302 168.637 205.875 168.926 205.389 168.926Z" fill="#091D34"/>
<path fill-rule="evenodd" clip-rule="evenodd" d="M183.046 129.921L192.989 126.176C193.224 126.088 193.49 126.166 193.64 126.367L202.891 138.83C203.005 138.984 203.032 139.184 202.963 139.362L196.292 156.559C196.18 156.847 195.855 156.99 195.566 156.879C195.566 156.879 195.565 156.879 195.565 156.879L183.045 152.038C182.903 151.983 182.79 151.874 182.731 151.734L178.213 141.075C178.154 140.935 178.154 140.777 178.215 140.638L182.729 130.222C182.789 130.083 182.903 129.974 183.046 129.921Z" fill="#236AB8"/>
<path fill-rule="evenodd" clip-rule="evenodd" d="M174.493 125H192.286C192.364 125 192.428 125.062 192.428 125.138C192.428 125.195 192.391 125.247 192.335 125.267L181.503 129.151C181.356 129.204 181.238 129.314 181.177 129.455L176.863 139.48C176.742 139.761 176.41 139.893 176.122 139.775C176.094 139.764 176.067 139.75 176.041 139.735L171.072 136.714C170.889 136.603 170.656 136.603 170.473 136.714L165.448 139.769C165.381 139.809 165.294 139.789 165.253 139.725C165.225 139.681 165.224 139.625 165.252 139.58L174.372 125.066C174.398 125.025 174.444 125 174.493 125Z" fill="#98CA33"/>
<path fill-rule="evenodd" clip-rule="evenodd" d="M171.078 137.618L176.459 140.708C176.563 140.768 176.645 140.858 176.693 140.965L181.567 152.006C181.581 152.039 181.609 152.066 181.645 152.079L193.289 156.653C193.363 156.682 193.398 156.762 193.367 156.832C193.345 156.883 193.292 156.916 193.234 156.916H174.854C174.645 156.916 174.452 156.811 174.349 156.64L165.076 141.268C164.92 141.008 165.012 140.678 165.284 140.526L170.48 137.615C170.664 137.512 170.894 137.513 171.078 137.618Z" fill="#091D34"/>
</svg>
