<svg width="446" height="162" viewBox="0 0 446 162" fill="none" xmlns="http://www.w3.org/2000/svg">
<path d="M416.177 0H29.8607C13.3755 0 0 5.33002 0 11.8875V118.342C0 124.916 13.3755 130.23 29.8607 130.23H69.9123L64.4797 162L136.453 130.23H416.139C432.624 130.23 446 124.9 446 118.342V11.8875C446.037 5.31386 432.662 0 416.177 0Z" fill="#98CA33"/>
<path d="M363.353 33.1904L372.274 51.7335L392.208 54.7157L377.762 69.1296L381.196 89.4696L363.353 79.8731L345.472 89.4696L348.906 69.1296L334.46 54.7157L354.394 51.7335L363.353 33.1904Z" fill="white"/>
<path d="M83.0127 33.2583L91.9285 51.8014L111.887 54.7836L97.4496 69.1975L100.844 89.5375L83.0127 79.941L65.1809 89.5375L68.5757 69.1975L54.1387 54.7836L74.0968 51.8014L83.0127 33.2583Z" fill="white"/>
<path d="M152.966 33.2583L161.882 51.8014L181.84 54.7836L167.403 69.1975L170.798 89.5375L152.966 79.941L135.134 89.5375L138.529 69.1975L124.092 54.7836L144.05 51.8014L152.966 33.2583Z" fill="white"/>
<path d="M223.108 33.2583L232.029 51.8014L251.963 54.7836L237.554 69.1975L240.951 89.5375L223.108 79.941L205.227 89.5375L208.661 69.1975L194.215 54.7836L214.186 51.8014L223.108 33.2583Z" fill="white"/>
<path d="M293.23 33.2583L302.151 51.8014L322.085 54.7836L307.676 69.1975L311.073 89.5375L293.23 79.941L275.349 89.5375L278.783 69.1975L264.337 54.7836L284.308 51.8014L293.23 33.2583Z" fill="white"/>
</svg>
