<svg width="56" height="56" viewBox="0 0 56 56" fill="none" xmlns="http://www.w3.org/2000/svg">
<circle cx="28" cy="28" r="27" stroke="#98CA33" stroke-width="2"/>
<path d="M35.0356 14.9702C34.9305 14.6339 34.7111 14.3445 34.415 14.1516C34.0312 13.939 33.5998 13.8258 33.1606 13.8224C32.3295 13.763 23.6687 13.763 22.8376 13.8224C22.3984 13.8257 21.967 13.9389 21.5832 14.1516C21.3035 14.3367 21.0915 14.607 20.9789 14.9219C20.8663 15.2368 20.8591 15.5795 20.9584 15.8989C21.0062 16.0506 21.0851 16.1909 21.19 16.3109C21.3002 16.4279 21.4283 16.527 21.5695 16.6045C21.7929 16.7253 22.0381 16.8009 22.2909 16.827C22.2857 17.7144 22.2857 19.7144 22.2964 20.3596C22.2959 20.3479 22.2958 20.3363 22.2959 20.3248C22.2878 21.09 22.2773 21.8562 22.2705 22.6214C22.2708 22.6015 22.2699 22.5802 22.2703 22.559C22.2703 24.0001 22.2815 25.173 22.2857 26.5715V26.842C22.2857 31.4286 21.177 40.2589 26.6641 42.3988C33.0881 44.1934 33.7745 38.0001 33.7745 29.3934C33.7046 25.1109 33.6299 17.8259 33.657 17.2812C33.6665 17.1324 33.6609 16.9831 33.64 16.8355C33.9161 16.8133 34.1846 16.7347 34.4287 16.6045C34.5699 16.5271 34.6979 16.428 34.8082 16.3109C34.9131 16.1909 34.992 16.0506 35.0398 15.8989C35.1362 15.5965 35.1348 15.2717 35.0356 14.9702ZM28.147 41.7729C28.1672 41.7719 28.1885 41.7723 28.2098 41.7727L28.2087 41.7726L28.2502 41.7733C28.2159 41.7728 28.1815 41.7724 28.147 41.7729ZM34.1909 15.4995C34.1888 15.5126 34.1864 15.5257 34.1838 15.5387C34.1748 15.5707 34.1648 15.6023 34.1538 15.6336C34.1465 15.6517 34.1388 15.6695 34.1306 15.6869L34.1246 15.694C34.1138 15.7043 34.1025 15.7142 34.0911 15.724C34.0507 15.754 34.0084 15.7819 33.9647 15.8089C33.9472 15.8187 33.9295 15.8282 33.9117 15.8374C33.8965 15.8431 33.8812 15.8487 33.8658 15.854C33.7561 15.8837 33.6433 15.9048 33.531 15.9242C33.4449 15.9352 33.3583 15.9418 33.2715 15.944C32.9872 15.9504 32.7011 15.9495 32.4175 15.932C32.3414 15.9263 32.2667 15.9195 32.1908 15.9126C32.0294 15.8932 31.8667 15.8869 31.7043 15.8938C31.594 15.904 31.4911 15.9537 31.4149 16.0338C31.3387 16.1138 31.2944 16.2187 31.2903 16.3289C31.2862 16.4391 31.3225 16.547 31.3924 16.6325C31.4624 16.718 31.5613 16.7752 31.6705 16.7935C31.7575 16.8049 31.8474 16.8104 31.936 16.8158C31.9908 16.8198 32.0458 16.8227 32.1018 16.8281C32.2613 16.8424 32.4221 16.8557 32.5822 16.8601C32.6399 16.862 32.6979 16.8618 32.7557 16.8632C32.7557 21.2165 32.9488 25.3979 32.8571 29.7144C32.8069 32.1351 32.766 34.6765 32.457 37.0826C32.4591 37.0679 32.4614 37.0535 32.4644 37.0385C32.4612 37.0591 32.4576 37.0796 32.4546 37.1002L32.4554 37.094C32.1549 39.2783 30.8571 42.0001 28.2087 41.7726C27.7522 41.7596 27.3018 41.6644 26.8793 41.4918L26.9026 41.5021L26.8513 41.48L26.8599 41.484C26.8414 41.4755 26.8227 41.4677 26.804 41.4598C26.8135 41.4635 26.8226 41.4673 26.8315 41.4711C26.2035 41.215 25.6329 40.8371 25.1529 40.3597C24.9339 40.1262 24.7456 39.866 24.5924 39.5854C23.977 38.2188 23.5924 36.7606 23.454 35.2695C23.4558 35.282 23.4576 35.2944 23.4591 35.3062C23.1983 33.1127 23.0775 30.9051 23.0972 28.6964C23.1042 28.0785 23.1262 27.4599 23.133 26.842C23.138 26.2898 23.1343 25.7394 23.1381 25.1871C23.1378 25.2083 23.1387 25.2296 23.1384 25.2495C23.1526 24.1021 23.1953 22.9571 23.1958 21.8095C23.1955 21.8307 23.1951 21.8519 23.1948 21.8719C23.2173 20.2031 23.2279 18.5321 23.2135 16.8637C23.281 16.8621 23.3487 16.8623 23.4159 16.8601C23.5761 16.8557 23.7369 16.8424 23.8964 16.8281C23.9524 16.8227 24.0073 16.8198 24.0622 16.8158C24.1509 16.8104 24.2407 16.8049 24.3277 16.7935C24.4369 16.7752 24.5358 16.718 24.6057 16.6325C24.6757 16.547 24.712 16.4391 24.7079 16.3289C24.7037 16.2187 24.6595 16.1138 24.5833 16.0338C24.5071 15.9537 24.4042 15.904 24.2939 15.8938C24.1315 15.8869 23.9688 15.8932 23.8074 15.9126C23.7315 15.9195 23.6568 15.9263 23.5807 15.932C23.2971 15.9494 23.011 15.9504 22.7267 15.944C22.6399 15.9418 22.5533 15.9352 22.4672 15.9242C22.3549 15.9048 22.2421 15.8837 22.1325 15.854C22.117 15.8487 22.1017 15.8431 22.0865 15.8374C22.0687 15.8282 22.051 15.8187 22.0335 15.8089C21.9898 15.7819 21.9475 15.754 21.9071 15.724C21.8957 15.7142 21.8845 15.7043 21.8736 15.694L21.8676 15.6869C21.8594 15.6695 21.8517 15.6517 21.8444 15.6336C21.8334 15.6023 21.8234 15.5707 21.8144 15.5387C21.8118 15.5257 21.8094 15.5126 21.8073 15.4995C21.8061 15.4808 21.8056 15.4621 21.8053 15.4433C21.8077 15.4103 21.8108 15.3775 21.8152 15.3447C21.8205 15.3161 21.8266 15.2884 21.834 15.261C21.8425 15.2354 21.8517 15.2101 21.8616 15.1847C21.8753 15.1567 21.8898 15.129 21.9057 15.1022C21.92 15.0807 21.9347 15.0597 21.9499 15.0389C21.966 15.0205 21.9823 15.0026 21.9991 14.9852C22.0175 14.969 22.0362 14.9536 22.0552 14.9379C22.0799 14.921 22.1049 14.9051 22.1308 14.8897C22.157 14.8768 22.1837 14.8645 22.2104 14.8525C22.2564 14.8363 22.3037 14.822 22.3512 14.8087C22.4861 14.7785 22.6228 14.7565 22.7604 14.7429C23.1954 14.7033 32.8028 14.7033 33.2378 14.7429C33.3754 14.7565 33.5121 14.7785 33.647 14.8087C33.6945 14.822 33.7418 14.8363 33.7878 14.8525C33.8145 14.8645 33.8412 14.8768 33.8674 14.8897C33.8933 14.9051 33.9183 14.921 33.943 14.9379C33.962 14.9536 33.9807 14.969 33.9991 14.9852C34.0159 15.0026 34.0322 15.0205 34.0483 15.0389C34.0636 15.0597 34.0782 15.0807 34.0925 15.1022C34.1084 15.129 34.123 15.1567 34.1366 15.1847C34.1465 15.2101 34.1557 15.2354 34.1642 15.261C34.1716 15.2884 34.1777 15.3161 34.183 15.3447C34.1874 15.3775 34.1906 15.4103 34.1929 15.4433C34.1926 15.4621 34.1921 15.4808 34.1909 15.4995Z" fill="#454545"/>
<path d="M25.7779 29.9999C25.4815 29.1851 25.7333 27.6444 25.5556 26.2221C25.3827 24.8394 26.7363 21.8041 27.4923 20.3433L28.2223 19.3333L30.0001 21.9999L30.889 25.3333L30.2223 27.5555L29.5557 29.9999L28.2223 31.7777H27.5556L25.7779 29.9999Z" fill="#98CA33"/>
<path d="M30.9185 24.0858C30.8405 23.662 30.734 23.2443 30.5996 22.8359C30.5291 22.632 30.4549 22.4299 30.377 22.2296C30.2969 22.0308 30.2051 21.8373 30.102 21.6502C29.9179 21.3061 29.7418 20.9527 29.5315 20.6239C29.4225 20.4543 29.3061 20.2877 29.187 20.1248C29.0638 19.9528 28.9266 19.7921 28.7957 19.627C28.6112 19.3756 28.412 19.1362 28.1992 18.9099C28.1398 18.8545 28 18.8572 28 18.8572C28 18.7119 27.8352 18.6825 27.7401 18.6695C27.6584 18.6598 27.5758 18.6745 27.502 18.7119C27.4282 18.7493 27.3663 18.8078 27.3238 18.8804C27.292 18.9384 27.2708 19.0019 27.261 19.0678C27.2446 19.1447 27.2282 19.2215 27.2129 19.2997C27.1718 19.5152 27.1184 19.728 27.0528 19.937C26.859 20.5023 26.6336 21.0556 26.3779 21.594C26.2503 21.8645 26.1237 22.1374 26.0041 22.4122C25.8901 22.6762 25.7912 22.9476 25.6924 23.2178C25.3623 24.0451 25.1234 24.9082 24.98 25.7907C24.9204 26.2297 24.89 26.6723 24.8889 27.1156C24.8937 27.5506 24.9264 27.9849 24.9868 28.4154C25.0961 29.2212 25.3788 29.9915 25.8141 30.6696C26.0541 31.0335 26.3143 31.3828 26.5933 31.7157C26.7003 31.8455 26.8036 31.9775 26.9119 32.1074C26.9959 32.2082 27.086 32.3026 27.1713 32.4012C27.235 32.4774 27.2949 32.5571 27.3628 32.6297C27.3904 32.6575 27.422 32.6809 27.4565 32.6989C27.5102 32.727 27.7143 32.8572 27.7143 32.8572C27.7143 32.8572 27.7143 32.8572 27.6995 32.9939C27.7597 33.3602 27.8135 33.7275 27.8436 34.0984L27.8421 34.0722C27.843 34.0851 27.8437 34.098 27.8446 34.1109L27.8462 34.1308L27.8452 34.1195C27.879 34.6757 27.8801 35.2336 27.8486 35.79C27.8363 35.9913 27.8206 36.1911 27.8002 36.3906C27.7871 36.5067 27.8184 36.6234 27.8876 36.7159C27.9567 36.8084 28.0581 36.8693 28.1702 36.8856C28.1773 36.8865 28.1844 36.8872 28.1915 36.8877C28.301 36.8957 28.4092 36.8605 28.4945 36.7891C28.5797 36.7178 28.6355 36.6157 28.6506 36.5035C28.7092 35.9438 28.7367 35.3811 28.733 34.8182C28.733 34.3886 28.7063 33.9595 28.6532 33.5334C28.6109 33.2013 28.5544 32.8707 28.4955 32.5406C28.7505 32.213 28.9759 31.8644 29.2001 31.5144C29.4234 31.1658 29.6667 30.8249 29.8613 30.458C30.0742 30.0553 30.2632 29.6346 30.4414 29.2131C30.6126 28.8014 30.7533 28.377 30.8624 27.9434C30.9713 27.5296 31.0434 27.1063 31.0777 26.6789C31.1193 26.2288 31.122 25.7758 31.0857 25.3252C31.0507 24.9094 30.9949 24.4957 30.9185 24.0858ZM30.2348 26.3882C30.2167 26.6808 30.1832 26.9723 30.1343 27.2612C30.0593 27.6205 29.9651 27.9753 29.8521 28.3239C29.6718 28.827 29.4626 29.3186 29.2254 29.7959C28.9413 30.3226 28.6301 30.8333 28.293 31.3256C28.2724 31.1935 28.2484 31.0618 28.2282 30.9297C28.1612 30.4935 28.1048 30.0558 28.0698 29.6149C28.0314 29.0966 28.0241 28.5763 28.0479 28.057C28.0714 27.667 28.1149 27.2786 28.1779 26.8933C28.2394 26.5947 28.3186 26.3003 28.4152 26.0119L28.3969 26.0663L28.4061 26.0372C28.4486 25.9315 28.4488 25.8126 28.4066 25.7067C28.3644 25.6009 28.2834 25.5165 28.1811 25.4722C28.0789 25.4279 27.9639 25.4272 27.8612 25.4703C27.7585 25.5134 27.6765 25.5968 27.6331 25.7021C27.5901 25.8044 27.5548 25.9099 27.5274 26.0177C27.4882 26.1449 27.4512 26.2747 27.4189 26.4049C27.3519 26.687 27.3019 26.973 27.2692 27.2615C27.1999 27.8206 27.1723 28.3845 27.1867 28.948C27.199 29.3916 27.2256 29.8352 27.2766 30.2757C27.3169 30.6281 27.3687 30.9782 27.4226 31.328C27.3108 31.1897 27.1995 31.051 27.0885 30.9119C26.906 30.6837 26.7302 30.4429 26.5661 30.1992C26.4442 30.0013 26.332 29.7971 26.2301 29.5875C26.1677 29.4554 26.1122 29.32 26.0638 29.1818C25.9968 28.9825 25.9403 28.7796 25.8948 28.5739C25.8369 28.2367 25.7975 27.8963 25.7767 27.5544C25.7574 27.2101 25.7583 26.865 25.7794 26.5208C25.8042 26.1562 25.8503 25.7934 25.9175 25.4345C25.9979 25.0498 26.1002 24.6704 26.2238 24.2981C26.2844 24.1171 26.3489 23.9384 26.4143 23.7597C26.5507 23.3858 26.686 23.0106 26.8457 22.6447C27.0114 22.2643 27.198 21.8931 27.3625 21.5114C27.5253 21.137 27.6803 20.7546 27.8117 20.3654C27.8574 20.2287 27.8993 20.0908 27.9375 19.9517C28.0502 20.0949 28.1625 20.2387 28.2776 20.3794C28.4634 20.6075 28.6326 20.8493 28.7956 21.0956C28.9166 21.2878 29.024 21.4879 29.1314 21.6881C29.2453 21.898 29.3603 22.107 29.4675 22.3208C29.588 22.5873 29.6947 22.8602 29.7873 23.1383L29.7846 23.13L29.7879 23.1401L29.7976 23.1679L29.7901 23.1469C29.8989 23.4879 29.9888 23.835 30.0596 24.1865L30.0555 24.1642L30.0612 24.1936L30.067 24.2209L30.0631 24.2039C30.1467 24.6489 30.206 25.0984 30.2406 25.5503C30.2547 25.8294 30.2527 26.1092 30.2348 26.3882Z" fill="#454545"/>
</svg>
