<svg width="56" height="56" viewBox="0 0 56 56" fill="none" xmlns="http://www.w3.org/2000/svg">
<circle cx="28" cy="28" r="27" stroke="#98CA33" stroke-width="2"/>
<path d="M25.1185 30.2333H21.4575V41.9333L22.3728 43.1333C22.7795 43.2333 23.7762 43.3733 24.5084 43.1333C25.2406 42.8933 25.2202 42.0333 25.1185 41.6333V30.2333Z" fill="#98CA33"/>
<path d="M34.2372 12H12.5424C12.3985 12 12.2606 12.0562 12.1589 12.1562C12.0571 12.2562 12 12.3919 12 12.5333V16.8C12.0002 16.9293 12.0482 17.0541 12.135 17.1513C12.2218 17.2484 12.3415 17.3112 12.4719 17.328L20.4935 18.3787L21.7627 19.1307V29.6H21.2203C21.0765 29.6 20.9385 29.6562 20.8368 29.7562C20.7351 29.8562 20.6779 29.9919 20.6779 30.1333V41.3333C20.6779 42.0406 20.9636 42.7188 21.4722 43.2189C21.9808 43.719 22.6706 44 23.3898 44C24.109 44 24.7988 43.719 25.3074 43.2189C25.8159 42.7188 26.1016 42.0406 26.1016 41.3333V30.1333C26.1016 29.9919 26.0445 29.8562 25.9428 29.7562C25.8411 29.6562 25.7031 29.6 25.5593 29.6H25.0169V19.1307L26.286 18.3787L34.3077 17.328C34.4381 17.3112 34.5578 17.2484 34.6446 17.1513C34.7314 17.0541 34.7794 16.9293 34.7796 16.8V12.5333C34.7796 12.3919 34.7224 12.2562 34.6207 12.1562C34.519 12.0562 34.381 12 34.2372 12ZM25.0169 41.3333C25.0169 41.7577 24.8455 42.1646 24.5403 42.4647C24.2352 42.7647 23.8213 42.9333 23.3898 42.9333C22.9582 42.9333 22.5444 42.7647 22.2392 42.4647C21.9341 42.1646 21.7627 41.7577 21.7627 41.3333V30.6667H25.0169V41.3333ZM22.8474 29.6V19.7707L23.1132 19.9253C23.1969 19.9741 23.2924 19.9999 23.3898 19.9999C23.4871 19.9999 23.5827 19.9741 23.6664 19.9253L23.9322 19.7707V29.6H22.8474ZM33.6948 16.3307L26.0311 17.3387C25.9582 17.3471 25.8879 17.3708 25.825 17.408L23.3898 18.8427L20.9545 17.408C20.8916 17.3708 20.8214 17.3471 20.7484 17.3387L13.0847 16.3307V15.2H33.6948V16.3307ZM33.6948 14.1333H13.0847V13.0667H33.6948V14.1333Z" fill="#454545"/>
<path d="M31.8304 38.3332L31.5253 34.1332H31.8304L35.1863 35.0332L36.7117 34.4332L39.4574 32.9332L41.2879 33.5332L43.4235 35.0332L42.8134 38.3332L41.2879 41.6332L40.6778 43.4332H38.8473H35.1863L34.5761 42.8332L33.3558 40.7332L31.8304 38.3332Z" fill="#98CA33"/>
<path d="M40.7458 27.0827V24.8C40.8896 24.8 41.0276 24.7438 41.1293 24.6438C41.231 24.5438 41.2882 24.4081 41.2882 24.2667V22.1333C41.2869 21.7094 41.115 21.3031 40.8102 21.0034C40.5053 20.7036 40.0922 20.5346 39.661 20.5333H30.4407C30.2969 20.5333 30.1589 20.5895 30.0572 20.6895C29.9555 20.7896 29.8984 20.9252 29.8984 21.0667V23.2C29.8984 23.3414 29.9555 23.4771 30.0572 23.5771C30.1589 23.6771 30.2969 23.7333 30.4407 23.7333H32.2794C32.3786 23.8522 32.4894 23.9611 32.6102 24.0587V24.864C32.6102 25.2008 32.5015 25.529 32.2998 25.8012C32.098 26.0734 31.8136 26.2756 31.4875 26.3787L31.3465 26.4267L31.7045 27.44L31.8346 27.392C32.3764 27.2177 32.8482 26.8792 33.1824 26.4251C33.5165 25.971 33.696 25.4245 33.695 24.864V24.656C33.871 24.7139 34.0528 24.7532 34.2373 24.7733V27.0827C32.2251 28.6987 30.9831 31.6747 30.9831 34.9333C30.9831 37.872 31.9919 40.6026 33.695 42.304V43.4666C33.695 43.6081 33.7521 43.7438 33.8538 43.8438C33.9555 43.9438 34.0935 44 34.2373 44H40.7458C40.8896 44 41.0276 43.9438 41.1293 43.8438C41.231 43.7438 41.2882 43.6081 41.2882 43.4666V42.304C42.9912 40.6026 44 37.872 44 34.9333C44 31.6747 42.758 28.6987 40.7458 27.0827ZM30.9831 22.6667V21.6H31.5255V21.7493C31.5238 22.0609 31.5733 22.3706 31.6719 22.6667H30.9831ZM42.861 33.8027C42.7254 33.696 42.5953 33.584 42.4597 33.4667C42.1021 33.0883 41.669 32.7864 41.1875 32.5799C40.706 32.3735 40.1864 32.2668 39.661 32.2667C39.097 32.2582 38.5391 32.3825 38.0339 32.6293V24.8H39.661V27.344C39.6604 27.4269 39.6797 27.5088 39.7174 27.5829C39.7551 27.6571 39.8102 27.7214 39.878 27.7707C41.516 28.9707 42.6115 31.2213 42.861 33.8027ZM32.6102 21.7493V21.6H39.661C39.8049 21.6 39.9428 21.6562 40.0446 21.7562C40.1463 21.8562 40.2034 21.9919 40.2034 22.1333V23.7333H34.6278C34.093 23.7325 33.5803 23.5232 33.2021 23.1513C32.8239 22.7794 32.6111 22.2753 32.6102 21.7493ZM35.1051 27.7707C35.173 27.7214 35.228 27.6571 35.2657 27.5829C35.3034 27.5088 35.3227 27.4269 35.3221 27.344V24.8H36.9492V33.392C36.9167 33.4187 36.8841 33.4453 36.857 33.472C36.5969 33.762 36.2774 33.9947 35.9194 34.1546C35.5613 34.3146 35.1729 34.3982 34.7797 34.4C34.3857 34.3996 33.9964 34.316 33.6381 34.155C33.2797 33.994 32.9606 33.7593 32.7024 33.4667C32.5506 33.3333 32.3879 33.2 32.2197 33.072C32.5885 30.8 33.6245 28.8533 35.1051 27.7707ZM40.3716 41.696C40.318 41.7451 40.2755 41.8045 40.2465 41.8706C40.2176 41.9367 40.2029 42.008 40.2034 42.08V42.9333H34.7797V42.08C34.7802 42.008 34.7656 41.9367 34.7366 41.8706C34.7077 41.8045 34.6651 41.7451 34.6116 41.696C33.017 40.208 32.0679 37.68 32.0679 34.9333C32.0679 34.7413 32.0733 34.544 32.0841 34.352C32.4323 34.7089 32.851 34.9919 33.3146 35.1836C33.7782 35.3753 34.2768 35.4716 34.7797 35.4667C35.5612 35.4851 36.3259 35.2426 36.9492 34.7787V40.2666H38.0339V33.888C38.4882 33.5122 39.0677 33.3146 39.661 33.3333C40.055 33.3337 40.4444 33.4173 40.8027 33.5783C41.1611 33.7393 41.4801 33.974 41.7383 34.2667C42.0914 34.5916 42.4851 34.8712 42.9099 35.0987C42.8719 37.7813 41.9336 40.2346 40.3716 41.696Z" fill="#454545"/>
<path d="M28.1411 19.1147L27.371 19.8719L28.9058 21.3812L29.6759 20.624L28.1411 19.1147Z" fill="#454545"/>
<path d="M28.9066 22.8875L27.3722 24.3964L28.1392 25.1506L29.6737 23.6417L28.9066 22.8875Z" fill="#454545"/>
<path d="M28.8135 21.6H26.644V22.6666H28.8135V21.6Z" fill="#454545"/>
<path d="M35.3218 30.1333H34.237V31.2H35.3218V30.1333Z" fill="#454545"/>
<path d="M34.2371 31.2H33.1523V32.2666H34.2371V31.2Z" fill="#454545"/>
<path d="M35.3218 37.0667H34.237V38.1333H35.3218V37.0667Z" fill="#454545"/>
<path d="M23.39 41.8667C23.6895 41.8667 23.9323 41.6279 23.9323 41.3334C23.9323 41.0388 23.6895 40.8 23.39 40.8C23.0904 40.8 22.8476 41.0388 22.8476 41.3334C22.8476 41.6279 23.0904 41.8667 23.39 41.8667Z" fill="#454545"/>
</svg>
