<svg width="56" height="56" viewBox="0 0 56 56" fill="none" xmlns="http://www.w3.org/2000/svg">
<circle cx="28" cy="28" r="27" stroke="#98CA33" stroke-width="2"/>
<path d="M34.2232 17.7778C33.8707 17.7794 33.5266 17.872 33.2341 18.0438C32.9417 18.2157 32.7139 18.4592 32.5795 18.7437C32.4451 19.0283 32.41 19.3412 32.4787 19.6431C32.5474 19.945 32.7167 20.2224 32.9655 20.4405C33.301 20.7295 33.754 20.8908 34.2253 20.8889C34.6967 20.8871 35.148 20.7223 35.4806 20.4307C35.8132 20.1391 35.9999 19.7443 36 19.3328C36.0001 18.9212 35.8135 18.5264 35.481 18.2347C35.3165 18.0895 35.1206 17.9744 34.9047 17.8959C34.6888 17.8175 34.4571 17.7774 34.2232 17.7778ZM34.8521 19.889C34.7697 19.9614 34.6717 20.0189 34.5638 20.0581C34.4559 20.0973 34.3401 20.1175 34.2232 20.1175C34.1063 20.1175 33.9906 20.0973 33.8827 20.0581C33.7747 20.0189 33.6768 19.9614 33.5943 19.889C33.4275 19.7425 33.3339 19.5442 33.3339 19.3376C33.3339 19.1309 33.4275 18.9327 33.5943 18.7861C33.6768 18.7137 33.7747 18.6563 33.8827 18.6171C33.9906 18.5779 34.1063 18.5577 34.2232 18.5577C34.3401 18.5577 34.4559 18.5779 34.5638 18.6171C34.6717 18.6563 34.7697 18.7137 34.8521 18.7861C35.019 18.9327 35.1126 19.1309 35.1126 19.3376C35.1126 19.5442 35.019 19.7425 34.8521 19.889H34.8521Z" fill="#454545"/>
<path d="M39.4149 18.9697C39.7897 18.5936 40 18.0853 40 17.5555C40 17.0258 39.7897 16.5175 39.4149 16.1413C39.2295 15.9557 39.009 15.8084 38.7662 15.7078C38.5234 15.6073 38.263 15.5555 38 15.5555C37.737 15.5555 37.4766 15.6073 37.2338 15.7078C36.991 15.8084 36.7705 15.9557 36.5851 16.1413C36.2103 16.5175 36 17.0258 36 17.5556C36 18.0853 36.2103 18.5936 36.5851 18.9697C36.7705 19.1554 36.991 19.3027 37.2338 19.4033C37.4766 19.5038 37.737 19.5555 38 19.5555C38.263 19.5555 38.5234 19.5038 38.7662 19.4032C39.009 19.3027 39.2295 19.1554 39.4149 18.9697ZM37.1511 16.707C37.2623 16.5956 37.3946 16.5072 37.5403 16.4469C37.686 16.3866 37.8422 16.3555 38 16.3555C38.1578 16.3555 38.314 16.3866 38.4597 16.4469C38.6054 16.5072 38.7377 16.5956 38.8489 16.707C39.0741 16.9325 39.2005 17.2376 39.2005 17.5555C39.2005 17.8735 39.0741 18.1785 38.8489 18.4041C38.7377 18.5154 38.6054 18.6038 38.4597 18.6642C38.314 18.7245 38.1578 18.7555 38 18.7555C37.8422 18.7555 37.686 18.7245 37.5403 18.6642C37.3946 18.6038 37.2623 18.5154 37.1511 18.4041C36.9258 18.1785 36.7994 17.8735 36.7994 17.5555C36.7994 17.2376 36.9258 16.9325 37.1511 16.707Z" fill="#454545"/>
<path d="M18.0939 26.374C17.5259 26.3711 16.9735 26.5646 16.526 26.9234C16.0784 27.2822 15.7618 27.7853 15.6274 28.3514C15.4929 28.9175 15.5483 29.5135 15.7848 30.0433C16.0213 30.5731 16.4249 31.0056 16.9306 31.2711C17.4362 31.5365 18.0143 31.6194 18.5715 31.5062C19.1287 31.3931 19.6324 31.0906 20.0014 30.6476C20.3703 30.2046 20.5829 29.647 20.6049 29.0647C20.6268 28.4825 20.4567 27.9097 20.1222 27.4388L21.6249 25.8906C22.1139 26.1755 22.6773 26.2966 23.2366 26.237C23.7959 26.1773 24.323 25.94 24.7444 25.5581L25.8195 26.6657C25.5574 27.0884 25.443 27.59 25.4952 28.0881C25.5475 28.5862 25.7631 29.0514 26.1069 29.4073C26.3047 29.6115 26.54 29.7735 26.7991 29.8841C27.0583 29.9947 27.3362 30.0516 27.6168 30.0516C27.8975 30.0516 28.1754 29.9947 28.4345 29.8841C28.6937 29.7735 28.9289 29.6115 29.1268 29.4073C29.5268 28.9935 29.7512 28.4344 29.7512 27.8517C29.7512 27.269 29.5268 26.7099 29.1268 26.2962C28.7667 25.9238 28.2878 25.6972 27.778 25.6579C27.2681 25.6187 26.7616 25.7694 26.3514 26.0824L25.2522 24.95C25.5159 24.5228 25.6618 24.0302 25.6747 23.5247C25.6875 23.0192 25.5666 22.5196 25.325 22.0788L27.119 20.2306C27.6018 20.5953 28.1963 20.7697 28.794 20.7222C29.3917 20.6746 29.9529 20.4082 30.3751 19.9716C30.8465 19.4851 31.1111 18.827 31.1111 18.1411C31.1111 17.4551 30.8465 16.797 30.3751 16.3105C30.0232 15.9496 29.5748 15.7039 29.0866 15.6047C28.5985 15.5055 28.0926 15.5572 27.6331 15.7533C27.1736 15.9493 26.7812 16.2809 26.5057 16.706C26.2302 17.1311 26.0839 17.6306 26.0854 18.1411C26.0847 18.689 26.2545 19.2229 26.57 19.665L24.8462 21.4409C24.4097 21.0036 23.8418 20.7307 23.2348 20.6666C22.6279 20.6026 22.0177 20.7512 21.5036 21.0882L20.5983 20.1556C20.901 19.7316 21.0464 19.2109 21.0084 18.6869C20.9704 18.1629 20.7516 17.6699 20.3911 17.2966C20.1933 17.0924 19.958 16.9303 19.6989 16.8198C19.4397 16.7092 19.1618 16.6523 18.8812 16.6523C18.6005 16.6523 18.3226 16.7092 18.0635 16.8198C17.8043 16.9303 17.5691 17.0924 17.3712 17.2966C16.9712 17.7103 16.7468 18.2694 16.7468 18.8522C16.7468 19.4349 16.9712 19.994 17.3712 20.4077C17.7146 20.7624 18.1663 20.9854 18.6507 21.0393C19.1352 21.0932 19.623 20.9748 20.0325 20.7039L20.9134 21.6114C20.4638 22.1396 20.2238 22.8218 20.2409 23.5228C20.258 24.2239 20.5309 24.8928 21.0058 25.3973L19.5732 26.8732C19.1449 26.5485 18.6264 26.3735 18.0939 26.374ZM26.656 26.8618C26.7819 26.7319 26.9316 26.6288 27.0965 26.5584C27.2614 26.488 27.4382 26.4518 27.6168 26.4518C27.7954 26.4518 27.9723 26.488 28.1372 26.5584C28.3021 26.6288 28.4518 26.7319 28.5777 26.8618C28.8326 27.1249 28.9757 27.4808 28.9757 27.8517C28.9757 28.2227 28.8326 28.5785 28.5777 28.8416C28.4518 28.9716 28.3021 29.0747 28.1372 29.1451C27.9723 29.2154 27.7954 29.2517 27.6168 29.2517C27.4382 29.2517 27.2614 29.2154 27.0965 29.1451C26.9316 29.0747 26.7819 28.9716 26.656 28.8416C26.401 28.5785 26.258 28.2227 26.258 27.8517C26.258 27.4808 26.401 27.1249 26.656 26.8618V26.8618ZM27.3705 16.8762C27.5314 16.7102 27.7227 16.5784 27.9334 16.4885C28.1441 16.3986 28.37 16.3523 28.5983 16.3523C28.8265 16.3523 29.0524 16.3986 29.2631 16.4885C29.4739 16.5784 29.6652 16.7102 29.826 16.8762C30.1518 17.2124 30.3346 17.6671 30.3346 18.1411C30.3346 18.6151 30.1518 19.0698 29.826 19.4059C29.6652 19.572 29.4739 19.7038 29.2631 19.7937C29.0524 19.8836 28.8265 19.9299 28.5983 19.9299C28.37 19.9299 28.1441 19.8836 27.9334 19.7937C27.7227 19.7038 27.5314 19.572 27.3705 19.4059C27.0447 19.0698 26.8619 18.6151 26.8619 18.1411C26.8619 17.6671 27.0447 17.2124 27.3705 16.8762ZM19.842 19.8421C19.7161 19.972 19.5664 20.0751 19.4015 20.1455C19.2366 20.2159 19.0598 20.2521 18.8812 20.2521C18.7026 20.2521 18.5257 20.2159 18.3608 20.1455C18.1959 20.0751 18.0462 19.972 17.9203 19.8421C17.6654 19.579 17.5223 19.2231 17.5223 18.8522C17.5223 18.4812 17.6654 18.1253 17.9203 17.8622C18.0462 17.7323 18.1959 17.6292 18.3608 17.5588C18.5257 17.4884 18.7026 17.4522 18.8812 17.4522C19.0598 17.4522 19.2366 17.4884 19.4015 17.5588C19.5664 17.6292 19.7161 17.7323 19.842 17.8622C20.097 18.1253 20.24 18.4812 20.24 18.8522C20.24 19.2231 20.097 19.579 19.842 19.8421ZM21.5851 22.0378C21.765 21.8522 21.9789 21.7048 22.2145 21.6043C22.45 21.5038 22.7027 21.452 22.9578 21.452C23.213 21.452 23.4656 21.5038 23.7012 21.6043C23.9368 21.7048 24.1506 21.8522 24.3305 22.0378C24.6947 22.4136 24.8991 22.922 24.8991 23.4519C24.8991 23.9819 24.6947 24.4902 24.3305 24.8661C24.1506 25.0517 23.9368 25.199 23.7012 25.2996C23.4656 25.4001 23.213 25.4518 22.9578 25.4518C22.7027 25.4518 22.45 25.4001 22.2145 25.2996C21.9789 25.199 21.765 25.0517 21.5851 24.8661C21.221 24.4902 21.0166 23.9819 21.0166 23.4519C21.0166 22.922 21.221 22.4136 21.5851 22.0378ZM19.3217 30.2277C19.1608 30.3937 18.9695 30.5255 18.7588 30.6154C18.5481 30.7053 18.3221 30.7516 18.0939 30.7516C17.8657 30.7516 17.6397 30.7053 17.429 30.6154C17.2183 30.5255 17.027 30.3937 16.8661 30.2277C16.5404 29.8915 16.3575 29.4368 16.3575 28.9628C16.3575 28.4888 16.5404 28.0341 16.8661 27.6979C17.027 27.5319 17.2183 27.4001 17.429 27.3102C17.6397 27.2203 17.8657 27.174 18.0939 27.174C18.3221 27.174 18.5481 27.2203 18.7588 27.3102C18.9695 27.4001 19.1608 27.5319 19.3217 27.6979C19.6474 28.0341 19.8302 28.4888 19.8302 28.9628C19.8302 29.4368 19.6474 29.8915 19.3217 30.2277L19.3217 30.2277Z" fill="#454545"/>
<path d="M26.0275 39.1781L28.8768 34.3562L32.3836 35.2329H34.3562L36.9864 34.3562L39.3973 38.7398L39.8357 39.8357L39.1782 40.274H32.3836H26.0275V39.1781Z" fill="#98CA33"/>
<path d="M35.633 22.5741C35.7374 22.5741 35.8375 22.5322 35.9113 22.4575C35.9852 22.3828 36.0267 22.2816 36.0267 22.176C36.0267 22.0704 35.9852 21.9691 35.9113 21.8944C35.8375 21.8198 35.7374 21.7778 35.633 21.7778H30.1447C30.0402 21.7778 29.9401 21.8198 29.8663 21.8944C29.7924 21.9691 29.751 22.0704 29.751 22.176C29.751 22.2816 29.7924 22.3828 29.8663 22.4575C29.9401 22.5322 30.0402 22.5741 30.1447 22.5741H30.7621V29.787L25.4904 39.0992C25.3874 39.2805 25.3332 39.4859 25.3333 39.695C25.3333 39.9042 25.3877 40.1096 25.4909 40.2908C25.5942 40.472 25.7426 40.6226 25.9214 40.7275C26.1003 40.8325 26.3032 40.8882 26.51 40.8889H39.2676C39.4744 40.8882 39.6774 40.8325 39.8562 40.7275C40.035 40.6226 40.1835 40.4719 40.2867 40.2908C40.3899 40.1096 40.4443 39.9041 40.4444 39.695C40.4445 39.4859 40.3903 39.2805 40.2872 39.0992L35.0155 29.787V22.5741H35.633ZM39.6075 39.4961C39.6418 39.5565 39.6599 39.625 39.6599 39.6947C39.6598 39.7644 39.6417 39.8329 39.6073 39.8933C39.5729 39.9537 39.5234 40.0039 39.4638 40.0388C39.4042 40.0738 39.3365 40.0924 39.2676 40.0926H26.51C26.4411 40.0924 26.3734 40.0738 26.3138 40.0388C26.2542 40.0039 26.2047 39.9537 26.1703 39.8933C26.1359 39.8329 26.1178 39.7644 26.1178 39.6947C26.1177 39.625 26.1358 39.5565 26.1701 39.4961L28.9916 34.5118C30.1555 35.2637 31.5077 35.6632 32.8888 35.6632C34.2699 35.6632 35.6222 35.2637 36.786 34.5118L39.6075 39.4961ZM36.3954 33.8218C35.3503 34.5041 34.1328 34.867 32.8888 34.867C31.6449 34.867 30.4273 34.5041 29.3822 33.8218L31.5461 29.9996V22.5741H34.2315V29.9996L36.3954 33.8218Z" fill="#454545"/>
</svg>
