<svg width="131" height="117" viewBox="0 0 131 117" fill="none" xmlns="http://www.w3.org/2000/svg">
<path d="M61.1332 78.6964H52.036V85.6607H42.9388V78.6964H33.8416V71.7321H42.9388V64.7679H52.036V71.7321H61.1332V78.6964Z" fill="#98CA33"/>
<path d="M64.8762 41.7857H31.1905C24.2133 41.7857 18.5583 46.2752 18.5583 51.8143V108.643H77.5083V51.8143C77.5083 46.2752 71.8534 41.7857 64.8762 41.7857ZM69.0869 95.2714H26.9798V55.1571H69.0869V95.2714Z" fill="#98CA33"/>
<path d="M56.7666 32.3839H38.2083V19.8482C38.2083 18.1172 39.5929 16.7143 41.3013 16.7143H53.6735C55.3819 16.7143 56.7666 18.1172 56.7666 19.8482V32.3839Z" fill="#98CA33"/>
<path d="M79.6917 25.5938C79.6917 27.6132 77.9813 29.25 75.8709 29.25C73.7605 29.25 72.05 27.6132 72.05 25.5938C72.05 23.5743 73.7605 21.9375 75.8709 21.9375C77.9813 21.9375 79.6917 23.5743 79.6917 25.5938Z" fill="#98CA33"/>
<path d="M96.0667 18.2812C96.0667 20.3007 94.3563 21.9375 92.2459 21.9375C90.1355 21.9375 88.425 20.3007 88.425 18.2812C88.425 16.2618 90.1355 14.625 92.2459 14.625C94.3563 14.625 96.0667 16.2618 96.0667 18.2812Z" fill="#98CA33"/>
<path d="M96.0667 32.9062C96.0667 34.9257 94.3563 36.5625 92.2459 36.5625C90.1355 36.5625 88.425 34.9257 88.425 32.9062C88.425 30.8868 90.1355 29.25 92.2459 29.25C94.3563 29.25 96.0667 30.8868 96.0667 32.9062Z" fill="#98CA33"/>
<path d="M112.442 10.9688C112.442 12.9882 110.731 14.625 108.621 14.625C106.511 14.625 104.8 12.9882 104.8 10.9688C104.8 8.94928 106.511 7.3125 108.621 7.3125C110.731 7.3125 112.442 8.94928 112.442 10.9688Z" fill="#98CA33"/>
<path d="M112.442 25.5937C112.442 27.6132 110.731 29.25 108.621 29.25C106.511 29.25 104.8 27.6132 104.8 25.5937C104.8 23.5743 106.511 21.9375 108.621 21.9375C110.731 21.9375 112.442 23.5743 112.442 25.5937Z" fill="#98CA33"/>
<path d="M112.442 39.1741C112.442 41.1936 110.731 42.8304 108.621 42.8304C106.511 42.8304 104.8 41.1936 104.8 39.1741C104.8 37.1546 106.511 35.5179 108.621 35.5179C110.731 35.5179 112.442 37.1546 112.442 39.1741Z" fill="#98CA33"/>
</svg>
