<svg width="87" height="108" viewBox="0 0 87 108" fill="none" xmlns="http://www.w3.org/2000/svg">
<path d="M16.2439 96.9732H10.3636C9.8438 96.9732 9.34525 97.1619 8.97766 97.4977C8.61007 97.8336 8.40356 98.2891 8.40356 98.7641C8.40356 99.239 8.61007 99.6945 8.97766 100.03C9.34525 100.366 9.8438 100.555 10.3636 100.555H16.2439C16.7637 100.555 17.2623 100.366 17.6299 100.03C17.9975 99.6945 18.204 99.239 18.204 98.7641C18.204 98.2891 17.9975 97.8336 17.6299 97.4977C17.2623 97.1619 16.7637 96.9732 16.2439 96.9732Z" fill="#98CA33"/>
<path d="M45.6451 80.8555C44.4821 80.8555 43.3453 81.1706 42.3783 81.7609C41.4113 82.3513 40.6576 83.1903 40.2125 84.172C39.7674 85.1538 39.651 86.234 39.8779 87.2762C40.1048 88.3183 40.6648 89.2756 41.4872 90.027C42.3095 90.7784 43.3573 91.2901 44.498 91.4974C45.6386 91.7047 46.8209 91.5983 47.8954 91.1916C48.9699 90.785 49.8883 90.0964 50.5344 89.2129C51.1805 88.3294 51.5254 87.2906 51.5254 86.228C51.5254 84.8031 50.9059 83.4366 49.8031 82.4291C48.7003 81.4215 47.2047 80.8555 45.6451 80.8555ZM45.6451 88.0189C45.2575 88.0189 44.8785 87.9139 44.5562 87.7171C44.2338 87.5203 43.9826 87.2406 43.8343 86.9134C43.6859 86.5861 43.6471 86.226 43.7227 85.8787C43.7984 85.5313 43.985 85.2122 44.2592 84.9617C44.5333 84.7112 44.8825 84.5407 45.2627 84.4716C45.643 84.4025 46.0371 84.438 46.3952 84.5735C46.7534 84.709 47.0595 84.9386 47.2749 85.2331C47.4903 85.5276 47.6052 85.8738 47.6052 86.228C47.6052 86.703 47.3987 87.1585 47.0311 87.4944C46.6635 87.8302 46.165 88.0189 45.6451 88.0189Z" fill="#98CA33"/>
<path d="M80.7402 58.3345L78.6802 55.111C76.9953 52.4907 75.9915 49.5519 75.7461 46.5212C75.5008 43.4905 76.0204 40.4487 77.265 37.6305C77.7284 36.5727 77.9089 35.4292 77.7916 34.295C77.6744 33.1607 77.2627 32.0683 76.5908 31.1085C75.9188 30.1488 75.006 29.3493 73.9281 28.7764C72.8502 28.2036 71.6382 27.8739 70.3929 27.8148L69.6893 25.2467C70.0996 25.1472 70.4626 24.927 70.7223 24.6202C70.982 24.3133 71.1238 23.9369 71.126 23.549V16.3856C71.126 15.9106 70.9195 15.4551 70.5519 15.1192C70.1843 14.7834 69.6858 14.5947 69.1659 14.5947V2.05874C69.1659 1.58377 68.9594 1.12826 68.5918 0.792412C68.2242 0.456562 67.7257 0.267883 67.2058 0.267883H43.6848C43.165 0.267883 42.6664 0.456562 42.2989 0.792412C41.9313 1.12826 41.7248 1.58377 41.7248 2.05874V14.5947C41.2049 14.5947 40.7064 14.7834 40.3388 15.1192C39.9712 15.4551 39.7647 15.9106 39.7647 16.3856V23.549C39.7677 23.9362 39.91 24.3119 40.1696 24.618C40.4292 24.9241 40.7917 25.1438 41.2014 25.2431L39.6882 30.7715C36.8859 32.034 34.7269 34.2382 33.6633 36.9225C32.5998 39.6067 32.7141 42.5628 33.9824 45.1718C34.2386 45.7028 34.4261 46.2593 34.5411 46.8301H12.3235C11.2938 46.8303 10.2872 47.1094 9.43102 47.6322C8.57484 48.1549 7.90749 48.8978 7.51332 49.767C7.11916 50.6362 7.01586 51.5927 7.2165 52.5155C7.41713 53.4383 7.91268 54.2861 8.64053 54.9516C8.88111 55.173 9.01613 55.4724 9.01613 55.7844C9.01613 56.0964 8.88111 56.3957 8.64053 56.6171C7.91021 57.2808 7.41265 58.1281 7.21124 59.0511C7.00983 59.9741 7.11368 60.931 7.50956 61.7999C7.71454 62.2501 7.99346 62.6692 8.33671 63.0427C7.25685 63.7856 6.35936 64.727 5.70209 65.8062C5.04482 66.8854 4.64236 68.0785 4.52067 69.3085C4.39897 70.5386 4.56073 71.7782 4.99552 72.9476C5.43031 74.1171 6.12848 75.1902 7.04502 76.098C5.3176 76.6722 3.79977 77.6754 2.66227 78.9947C1.52476 80.3139 0.812691 81.897 0.606149 83.5659C0.47456 84.775 0.615366 85.9958 1.01989 87.1533C1.42441 88.3108 2.08408 89.3803 2.95825 90.2959C3.31526 90.6525 3.51326 91.1182 3.51326 91.6015C3.51326 92.0847 3.31526 92.5504 2.95825 92.907C2.08438 93.8228 1.4249 94.8923 1.02039 96.0497C0.615883 97.2072 0.47491 98.428 0.606149 99.637C0.905131 101.883 2.10026 103.95 3.96276 105.441C5.82526 106.932 8.22428 107.743 10.7006 107.719H70.2008C72.0221 107.725 73.8087 107.264 75.358 106.389C76.9073 105.514 78.1573 104.26 78.9663 102.769L82.1025 97.0385C85.4098 90.9915 87.0162 84.287 86.7767 77.5306C86.5371 70.7741 84.4591 64.1787 80.7304 58.3399L80.7402 58.3345ZM61.3256 3.84959H65.2458V14.5947H61.3256V3.84959ZM59.3655 18.1764H67.2058V21.7581H59.3655V18.1764ZM66.4218 28.0422L44.0769 29.6755H44.0396L45.2157 25.3398H65.675L66.4218 28.0422ZM45.6449 3.84959H49.5651V14.5947H45.6449V3.84959ZM43.6848 18.1764H47.605V21.7581H43.6848V18.1764ZM45.6547 55.9635C46.1434 55.3275 46.4374 54.5839 46.5063 53.8094C46.5752 53.0349 46.4166 52.2577 46.0467 51.5579C45.3442 50.3897 44.9926 49.0724 45.0275 47.7398C45.1093 45.8908 45.8834 44.1235 47.2202 42.7332C48.557 41.343 50.3755 40.4141 52.3719 40.1019L56.0784 39.5359C57.306 39.3281 58.5674 39.3563 59.7823 39.6187C60.9972 39.8811 62.139 40.372 63.1347 41.06C64.5048 42.0344 65.5242 43.3612 66.0618 44.8696C66.5994 46.378 66.6306 47.9988 66.1513 49.5235L66.018 49.9462L66.0082 49.9838C65.7919 50.8257 65.8795 51.709 66.2578 52.5017C66.6362 53.2944 67.285 53.9541 68.1075 54.3821L68.8288 54.7815C69.0802 55.126 69.1932 55.5395 69.1485 55.9515C69.1039 56.3636 68.9043 56.7488 68.5838 57.0415C60.6487 64.3061 50.5309 69.2539 39.5138 71.2573L36.2208 71.8573C36.0974 71.8841 35.9713 71.8991 35.8445 71.9021C35.4861 71.9019 35.1347 71.8119 34.8284 71.642C34.522 71.4721 34.2726 71.2287 34.1071 70.9382C33.9416 70.6478 33.8664 70.3215 33.8897 69.9948C33.913 69.668 34.0339 69.3534 34.2392 69.085L45.6547 55.9635ZM11.1338 51.1281C11.2284 50.9121 11.3932 50.7277 11.6058 50.5997C11.8185 50.4716 12.0689 50.4061 12.3235 50.4118H34.2882C34.1388 50.8839 33.9378 51.341 33.6884 51.7764L32.3654 53.9935H18.2038C17.6839 53.9935 17.1854 54.1822 16.8178 54.518C16.4502 54.8539 16.2437 55.3094 16.2437 55.7844C16.2437 56.2593 16.4502 56.7148 16.8178 57.0507C17.1854 57.3865 17.6839 57.5752 18.2038 57.5752H30.2269L29.684 58.4832C29.1626 59.3571 28.6863 60.2525 28.2335 61.1569H12.3235C12.0687 61.1574 11.8195 61.0887 11.6076 60.9595C11.3956 60.8303 11.2304 60.6465 11.133 60.4314C11.0355 60.2163 11.0102 59.9796 11.0602 59.7514C11.1103 59.5231 11.2334 59.3136 11.414 59.1494C12.3891 58.2561 12.9366 57.046 12.9366 55.7844C12.9366 54.5228 12.3891 53.3127 11.414 52.4194C11.2288 52.2578 11.1026 52.0481 11.0524 51.8186C11.0023 51.5892 11.0307 51.3513 11.1338 51.1371V51.1281ZM14.2836 64.7386H26.6713C26.2225 65.917 25.8128 67.1097 25.4796 68.3204H14.2836C13.7638 68.3204 13.2652 68.509 12.8976 68.8449C12.53 69.1807 12.3235 69.6362 12.3235 70.1112C12.3235 70.5862 12.53 71.0417 12.8976 71.3775C13.2652 71.7134 13.7638 71.9021 14.2836 71.9021H24.6897C24.48 73.0894 24.3173 74.2839 24.2212 75.4838H14.2836C12.7241 75.4838 11.2284 74.9177 10.1256 73.9102C9.02288 72.9026 8.40336 71.5361 8.40336 70.1112C8.40336 68.6863 9.02288 67.3198 10.1256 66.3122C11.2284 65.3047 12.7241 64.7386 14.2836 64.7386ZM10.7006 104.137C9.19886 104.167 7.73779 103.69 6.59612 102.799C5.45444 101.907 4.71207 100.662 4.51063 99.3021C4.43028 98.5754 4.51331 97.8414 4.75465 97.1451C4.99598 96.4488 5.39052 95.805 5.91405 95.253C6.88288 94.2439 7.41707 92.9474 7.41707 91.605C7.41707 90.2627 6.88288 88.9662 5.91405 87.9571C5.38978 87.4055 4.99463 86.7617 4.75294 86.0653C4.51124 85.369 4.42811 84.6348 4.50867 83.9079C4.70879 82.5465 5.4508 81.3001 6.59298 80.4069C7.73516 79.5136 9.19745 79.0361 10.7006 79.0655H24.0997C24.118 80.2594 24.1925 81.4533 24.3231 82.6472H12.3235C11.8037 82.6472 11.3051 82.8359 10.9375 83.1717C10.5699 83.5076 10.3634 83.9631 10.3634 84.438C10.3634 84.913 10.5699 85.3685 10.9375 85.7044C11.3051 86.0402 11.8037 86.2289 12.3235 86.2289H24.8779C25.1248 87.4347 25.4299 88.6286 25.7932 89.8106H14.2836C13.7638 89.8106 13.2652 89.9993 12.8976 90.3351C12.53 90.671 12.3235 91.1265 12.3235 91.6015C12.3235 92.0764 12.53 92.5319 12.8976 92.8678C13.2652 93.2036 13.7638 93.3923 14.2836 93.3923H27.0751C27.5795 94.6101 28.1427 95.804 28.7647 96.974H24.084C23.5642 96.974 23.0656 97.1627 22.698 97.4985C22.3304 97.8344 22.1239 98.2899 22.1239 98.7649C22.1239 99.2398 22.3304 99.6954 22.698 100.031C23.0656 100.367 23.5642 100.556 24.084 100.556H30.713L31.9243 102.769C32.1944 103.25 32.5106 103.708 32.8691 104.137H10.7006ZM75.0932 93.8293C73.9938 95.8552 72.2952 97.5592 70.1898 98.7481C68.0845 99.937 65.6568 100.563 63.1818 100.556H40.6898C40.3259 100.556 39.9693 100.463 39.6598 100.288C39.3503 100.113 39.1002 99.8628 38.9375 99.5654L35.9386 94.0872C33.3054 89.2607 31.9314 83.9426 31.9243 78.5497C31.9233 78.094 32.1125 77.655 32.4534 77.3222C32.7943 76.9895 33.2612 76.788 33.759 76.7589C47.2414 75.952 60.0001 70.8975 69.8598 62.4571L70.9339 61.5366C71.1487 61.3524 71.4062 61.2148 71.6873 61.134C71.9683 61.0532 72.2657 61.0314 72.5573 61.0701C72.8488 61.1088 73.1271 61.2071 73.3713 61.3576C73.6156 61.5082 73.8196 61.7071 73.9681 61.9395C77.0396 66.7509 78.7508 72.1855 78.9472 77.7525C79.1437 83.3196 77.8191 88.8436 75.0932 93.8257V93.8293Z" fill="#98CA33"/>
<path d="M53.4856 64.7379C55.6506 64.7379 57.4058 63.1343 57.4058 61.1562C57.4058 59.178 55.6506 57.5745 53.4856 57.5745C51.3205 57.5745 49.5654 59.178 49.5654 61.1562C49.5654 63.1343 51.3205 64.7379 53.4856 64.7379Z" fill="#98CA33"/>
<path d="M55.4456 52.2019C57.6106 52.2019 59.3657 50.5983 59.3657 48.6202C59.3657 46.642 57.6106 45.0385 55.4456 45.0385C53.2805 45.0385 51.5254 46.642 51.5254 48.6202C51.5254 50.5983 53.2805 52.2019 55.4456 52.2019Z" fill="#98CA33"/>
<path d="M28.9845 24.4436H29.9645V25.339C29.9645 25.814 30.171 26.2695 30.5386 26.6053C30.9062 26.9412 31.4048 27.1299 31.9246 27.1299C32.4445 27.1299 32.943 26.9412 33.3106 26.6053C33.6782 26.2695 33.8847 25.814 33.8847 25.339V24.4436H34.8647C35.3846 24.4436 35.8831 24.2549 36.2507 23.9191C36.6183 23.5832 36.8248 23.1277 36.8248 22.6527C36.8248 22.1778 36.6183 21.7223 36.2507 21.3864C35.8831 21.0506 35.3846 20.8619 34.8647 20.8619H33.8847V19.9665C33.8847 19.4915 33.6782 19.036 33.3106 18.7001C32.943 18.3643 32.4445 18.1756 31.9246 18.1756C31.4048 18.1756 30.9062 18.3643 30.5386 18.7001C30.171 19.036 29.9645 19.4915 29.9645 19.9665V20.8619H28.9845C28.4647 20.8619 27.9661 21.0506 27.5985 21.3864C27.2309 21.7223 27.0244 22.1778 27.0244 22.6527C27.0244 23.1277 27.2309 23.5832 27.5985 23.9191C27.9661 24.2549 28.4647 24.4436 28.9845 24.4436Z" fill="#98CA33"/>
<path d="M9.38342 19.071H10.3635V19.9665C10.3635 20.4414 10.57 20.8969 10.9376 21.2328C11.3051 21.5686 11.8037 21.7573 12.3236 21.7573C12.8434 21.7573 13.342 21.5686 13.7095 21.2328C14.0771 20.8969 14.2836 20.4414 14.2836 19.9665V19.071H15.2637C15.7835 19.071 16.2821 18.8823 16.6497 18.5465C17.0173 18.2106 17.2238 17.7551 17.2238 17.2802C17.2238 16.8052 17.0173 16.3497 16.6497 16.0138C16.2821 15.678 15.7835 15.4893 15.2637 15.4893H14.2836V14.5939C14.2836 14.1189 14.0771 13.6634 13.7095 13.3276C13.342 12.9917 12.8434 12.803 12.3236 12.803C11.8037 12.803 11.3051 12.9917 10.9376 13.3276C10.57 13.6634 10.3635 14.1189 10.3635 14.5939V15.4893H9.38342C8.86358 15.4893 8.36502 15.678 7.99744 16.0138C7.62985 16.3497 7.42334 16.8052 7.42334 17.2802C7.42334 17.7551 7.62985 18.2106 7.99744 18.5465C8.36502 18.8823 8.86358 19.071 9.38342 19.071Z" fill="#98CA33"/>
<path d="M12.3235 34.2932C12.3235 34.7244 12.4938 35.1412 12.8031 35.4669C13.1124 35.7926 13.5399 36.0054 14.0072 36.0662C15.564 36.2754 17.0056 36.9375 18.1182 37.9543C19.2307 38.9711 19.9549 40.2884 20.1834 41.7109C20.25 42.1378 20.4829 42.5284 20.8394 42.811C21.1959 43.0936 21.652 43.2492 22.1239 43.2492C22.5958 43.2492 23.0519 43.0936 23.4084 42.811C23.7649 42.5284 23.9978 42.1378 24.0644 41.7109C24.2929 40.2884 25.0171 38.9711 26.1296 37.9543C27.2422 36.9375 28.6838 36.2754 30.2406 36.0662C30.7078 36.0053 31.1353 35.7925 31.4446 35.4668C31.7539 35.1411 31.9242 34.7244 31.9242 34.2932C31.9242 33.862 31.7539 33.4453 31.4446 33.1196C31.1353 32.7939 30.7078 32.5811 30.2406 32.5203C28.6838 32.311 27.2422 31.6489 26.1296 30.6321C25.0171 29.6153 24.2929 28.298 24.0644 26.8755C23.9978 26.4486 23.7649 26.058 23.4084 25.7754C23.0519 25.4929 22.5958 25.3373 22.1239 25.3373C21.652 25.3373 21.1959 25.4929 20.8394 25.7754C20.4829 26.058 20.25 26.4486 20.1834 26.8755C19.9549 28.298 19.2307 29.6153 18.1182 30.6321C17.0056 31.6489 15.564 32.311 14.0072 32.5203C13.5399 32.5811 13.1124 32.7939 12.8031 33.1196C12.4938 33.4453 12.3235 33.862 12.3235 34.2932Z" fill="#98CA33"/>
<path d="M63.2856 77.2739C61.735 77.2739 60.2191 77.694 58.9298 78.4811C57.6405 79.2682 56.6355 80.387 56.0421 81.696C55.4487 83.0049 55.2934 84.4452 55.596 85.8348C55.8985 87.2244 56.6452 88.5008 57.7417 89.5026C58.8382 90.5044 60.2352 91.1867 61.7561 91.4631C63.2769 91.7395 64.8534 91.5976 66.286 91.0554C67.7186 90.5132 68.9431 89.5951 69.8046 88.4171C70.6661 87.2391 71.126 85.8541 71.126 84.4373C71.126 82.5374 70.2999 80.7154 68.8296 79.372C67.3592 78.0286 65.365 77.2739 63.2856 77.2739ZM63.2856 86.2281C62.898 86.2281 62.519 86.1231 62.1967 85.9263C61.8744 85.7295 61.6231 85.4499 61.4748 85.1226C61.3264 84.7954 61.2876 84.4353 61.3632 84.0879C61.4389 83.7405 61.6255 83.4214 61.8997 83.171C62.1738 82.9205 62.523 82.7499 62.9033 82.6808C63.2835 82.6117 63.6776 82.6472 64.0357 82.7828C64.3939 82.9183 64.7 83.1478 64.9154 83.4423C65.1308 83.7368 65.2457 84.0831 65.2457 84.4373C65.2457 84.9122 65.0392 85.3678 64.6716 85.7036C64.304 86.0395 63.8055 86.2281 63.2856 86.2281Z" fill="#98CA33"/>
<path d="M71.1262 75.483C73.2913 75.483 75.0464 73.8794 75.0464 71.9013C75.0464 69.9232 73.2913 68.3196 71.1262 68.3196C68.9612 68.3196 67.2061 69.9232 67.2061 71.9013C67.2061 73.8794 68.9612 75.483 71.1262 75.483Z" fill="#98CA33"/>
<path d="M53.4855 96.9732C54.568 96.9732 55.4456 96.1714 55.4456 95.1823C55.4456 94.1933 54.568 93.3915 53.4855 93.3915C52.4029 93.3915 51.5254 94.1933 51.5254 95.1823C51.5254 96.1714 52.4029 96.9732 53.4855 96.9732Z" fill="#98CA33"/>
<path d="M51.5255 79.0646C52.608 79.0646 53.4856 78.2628 53.4856 77.2738C53.4856 76.2847 52.608 75.4829 51.5255 75.4829C50.443 75.4829 49.5654 76.2847 49.5654 77.2738C49.5654 78.2628 50.443 79.0646 51.5255 79.0646Z" fill="#98CA33"/>
</svg>
