<svg width="106" height="99" viewBox="0 0 106 99" fill="none" xmlns="http://www.w3.org/2000/svg">
<path d="M50.5383 64.2041C51.5246 64.2041 52.3242 63.4709 52.3242 62.5663C52.3242 61.6618 51.5246 60.9285 50.5383 60.9285C49.552 60.9285 48.7524 61.6618 48.7524 62.5663C48.7524 63.4709 49.552 64.2041 50.5383 64.2041Z" fill="#98CA33"/>
<path d="M46.8414 88.7713H61.3766L61.973 85.4957H46.2449L46.8414 88.7713Z" fill="#98CA33"/>
<path d="M31.9294 29.8102C34.0581 29.8102 36.0708 28.8603 37.3102 27.2716L42.316 20.8465C42.2767 20.8334 42.2428 20.8121 42.2035 20.8007L36.7887 19.1448L31.0293 28.3886C30.94 28.5311 30.8936 28.6933 30.8936 28.8587C30.8936 29.3844 31.3579 29.8102 31.9294 29.8102Z" fill="#98CA33"/>
<path d="M32.5669 14.4002L35.2636 15.224L37.4281 7.28391L34.5099 6.90066C33.3081 6.74016 32.1312 7.46571 31.8365 8.54994L30.965 11.7273C30.9186 11.9042 30.8936 12.0876 30.8936 12.2727C30.8936 13.2406 31.565 14.0956 32.5669 14.4002Z" fill="#98CA33"/>
<path d="M48.7524 33.0858H45.1807V36.3614H48.7524V33.0858Z" fill="#98CA33"/>
<path d="M47.915 21.338C48.4294 22.2781 48.7062 23.3263 48.7383 24.381C51.7761 23.4065 54.3906 21.5558 56.1943 19.0762L59.166 20.8925C56.7033 24.2795 53.0137 26.7084 48.7508 27.7926V29.8104H60.0107C61.0716 24.91 63.7075 20.3291 67.565 16.7898L69.4794 15.0341C69.9331 14.6197 70.1831 14.0677 70.1831 13.4814C70.1831 12.3955 69.2991 11.4604 68.1275 11.3064L40.9805 7.75072L38.6606 16.264L43.3325 17.6922C45.3112 18.2966 46.9846 19.6265 47.915 21.338Z" fill="#98CA33"/>
<path d="M63.039 33.0858H59.4673V36.3614H63.039V33.0858Z" fill="#98CA33"/>
<path d="M55.8955 33.0858H52.3237V36.3614H55.8955V33.0858Z" fill="#98CA33"/>
<path d="M63.5626 53.0542C61.0374 50.7399 57.68 49.4641 54.11 49.4641C50.5383 49.4641 47.1808 50.7399 44.6574 53.0542L44.2627 53.4161C42.5518 54.9868 41.6089 57.0733 41.6089 59.2926C41.6089 59.7528 41.65 60.213 41.7303 60.6569L45.6503 82.2203H62.5679L66.4879 60.6569C66.57 60.213 66.6111 59.7528 66.6111 59.2926C66.6111 57.0733 65.6682 54.9868 63.9573 53.4161L63.5626 53.0542ZM57.2888 72.2034C57.5371 72.7701 57.6817 73.3843 57.6817 74.0312C57.6817 76.7402 55.278 78.9446 52.3241 78.9446C49.3703 78.9446 46.9665 76.7402 46.9665 74.0312C46.9665 71.7661 48.6542 69.8728 50.9311 69.3078C50.6829 68.7411 50.5383 68.1269 50.5383 67.48C47.5844 67.48 45.1806 65.2755 45.1806 62.5666C45.1806 59.8576 47.5844 57.6531 50.5383 57.6531C53.4921 57.6531 55.8959 59.8576 55.8959 62.5666C58.8497 62.5666 61.2535 64.771 61.2535 67.48C61.2535 69.7451 59.5658 71.6367 57.2888 72.2034Z" fill="#98CA33"/>
<path d="M55.896 69.1177C56.8823 69.1177 57.6819 68.3844 57.6819 67.4799C57.6819 66.5753 56.8823 65.8421 55.896 65.8421C54.9097 65.8421 54.1101 66.5753 54.1101 67.4799C54.1101 68.3844 54.9097 69.1177 55.896 69.1177Z" fill="#98CA33"/>
<path d="M64.0858 39.6371H44.134L36.6851 46.4684C32.9491 49.8947 30.8936 54.4478 30.8936 59.2924C30.8936 60.2899 30.9846 61.2938 31.1614 62.2732L37.0173 94.4922C37.4513 96.8719 39.6729 98.5982 42.3035 98.5982H65.9181C68.5487 98.5982 70.7703 96.8719 71.2025 94.4922L77.0583 62.2732C77.2369 61.2922 77.3262 60.2899 77.3262 59.2924C77.3262 54.4478 75.2707 49.8947 71.5346 46.4684L64.0858 39.6371ZM70.0113 61.1972L64.9019 89.3118C64.6108 90.8972 63.1303 92.047 61.3784 92.047H46.8414C45.0912 92.047 43.609 90.8972 43.3179 89.3135L38.2085 61.1972C38.0942 60.5732 38.037 59.9328 38.037 59.2924C38.037 56.1986 39.3514 53.2882 41.7374 51.1001L42.132 50.7382C45.3305 47.8048 49.5845 46.1883 54.1099 46.1883C58.6335 46.1883 62.8874 47.8048 66.0877 50.7382L66.4824 51.1001C68.8683 53.2882 70.1827 56.1986 70.1827 59.2924C70.1827 59.9328 70.1256 60.5732 70.0113 61.1972Z" fill="#98CA33"/>
<path d="M52.324 75.669C53.3103 75.669 54.1098 74.9357 54.1098 74.0312C54.1098 73.1267 53.3103 72.3934 52.324 72.3934C51.3376 72.3934 50.5381 73.1267 50.5381 74.0312C50.5381 74.9357 51.3376 75.669 52.324 75.669Z" fill="#98CA33"/>
<path d="M1.05875 0.401789L0.00830078 3.53262L23.2243 10.0839L24.2748 6.95311L1.05875 0.401789Z" fill="#98CA33"/>
<path d="M20.1783 11.7944H5.89136V15.07H20.1783V11.7944Z" fill="#98CA33"/>
<path d="M18.392 92.047C23.3236 92.047 27.3214 88.3806 27.3214 83.8579C27.3214 79.3352 23.3236 75.6689 18.392 75.6689C13.4605 75.6689 9.46265 79.3352 9.46265 83.8579C9.46265 88.3806 13.4605 92.047 18.392 92.047Z" fill="#98CA33"/>
<path d="M96.9706 19.9835C92.047 19.9835 88.0413 23.6571 88.0413 28.1725C88.0413 32.6879 92.047 36.3615 96.9706 36.3615C101.894 36.3615 105.9 32.6879 105.9 28.1725C105.9 23.6571 101.894 19.9835 96.9706 19.9835ZM98.7565 28.1725C98.7565 27.2701 97.9564 26.5347 96.9706 26.5347V23.2591C99.9244 23.2591 102.328 25.4636 102.328 28.1725H98.7565Z" fill="#98CA33"/>
<path d="M23.7498 41.2748C23.7498 35.8553 18.944 31.4479 13.0346 31.4479C7.12512 31.4479 2.31934 35.8553 2.31934 41.2748C2.31934 46.6943 7.12512 51.1016 13.0346 51.1016C18.944 51.1016 23.7498 46.6943 23.7498 41.2748ZM9.46282 41.2748H5.89108C5.89108 37.6618 9.09493 34.7236 13.0346 34.7236V37.9992C11.0647 37.9992 9.46282 39.4683 9.46282 41.2748Z" fill="#98CA33"/>
</svg>
