<svg width="131" height="117" viewBox="0 0 131 117" fill="none" xmlns="http://www.w3.org/2000/svg">
<path d="M120.19 9.1739C119.881 8.1559 119.235 7.24127 118.332 6.546C117.43 5.85074 116.312 5.40617 115.121 5.26869C113.93 5.13121 112.719 5.30701 111.642 5.7738C110.566 6.24058 109.671 6.97731 109.072 7.89055L84.0061 45.9675V38.9108C83.9994 37.3435 83.4007 35.8222 82.3035 34.5849C81.2062 33.3476 79.6724 32.464 77.9418 32.0722V26.5027C77.9418 26.0326 77.7288 25.5817 77.3497 25.2493C76.9706 24.9169 76.4564 24.7301 75.9203 24.7301V19.4124C75.9203 18.9422 75.7073 18.4914 75.3282 18.159C74.9491 17.8265 74.435 17.6398 73.8988 17.6398H65.813C65.2769 17.6398 64.7627 17.8265 64.3836 18.159C64.0045 18.4914 63.7915 18.9422 63.7915 19.4124V24.7301C63.2554 24.7301 62.7413 24.9169 62.3622 25.2493C61.9831 25.5817 61.7701 26.0326 61.7701 26.5027V32.0722C60.0394 32.464 58.5056 33.3476 57.4084 34.5849C56.3112 35.8222 55.7124 37.3435 55.7057 38.9108V46.1589L51.2363 40.7064C50.425 39.717 49.335 38.929 48.0725 38.4194C46.8101 37.9099 45.4186 37.6963 44.0338 37.7994L40.5973 32.5791L37.5651 27.9704L39.3157 27.0841L46.3181 23.5389C46.5481 23.4227 46.7498 23.2678 46.9116 23.0832C47.0734 22.8986 47.1921 22.6879 47.261 22.463C47.3299 22.2382 47.3476 22.0036 47.3131 21.7728C47.2786 21.5419 47.1926 21.3193 47.0599 21.1176L43.017 14.9773C42.8843 14.7755 42.7075 14.5986 42.4967 14.4568C42.286 14.3149 42.0454 14.2109 41.7887 14.1507C41.5321 14.0904 41.2644 14.0751 41.001 14.1056C40.7376 14.1362 40.4837 14.2119 40.2537 14.3286L33.2514 17.8738L12.2444 28.5093C12.0139 28.6257 11.812 28.7808 11.65 28.9657C11.4881 29.1507 11.3693 29.3618 11.3006 29.5871C11.2319 29.8124 11.2145 30.0473 11.2495 30.2784C11.2845 30.5096 11.3711 30.7324 11.5045 30.9342L15.5474 37.0744C15.8155 37.4815 16.257 37.7786 16.7749 37.9003C17.2927 38.0219 17.8444 37.9582 18.3087 37.7232C18.9988 37.3736 19.7607 37.1468 20.5508 37.0556C21.341 36.9644 22.1439 37.0107 22.9136 37.1917C23.6833 37.3728 24.4048 37.6852 25.0368 38.1109C25.6688 38.5367 26.1988 39.0675 26.5967 39.673L30.0332 44.8915C29.2393 45.8921 28.7547 47.0561 28.6268 48.2699C28.4989 49.4837 28.7321 50.7058 29.3034 51.817L30.8701 54.8641H21.3409C20.8048 54.8641 20.2906 55.0508 19.9115 55.3833C19.5324 55.7157 19.3195 56.1666 19.3195 56.6367V63.727C19.3195 64.1971 19.5324 64.648 19.9115 64.9804C20.2906 65.3129 20.8048 65.4996 21.3409 65.4996H25.6709L26.2935 69.0448H21.3409C20.8048 69.0448 20.2906 69.2315 19.9115 69.5639C19.5324 69.8964 19.3195 70.3472 19.3195 70.8174C19.3415 75.1825 20.3602 79.4996 22.3155 83.5139C24.2708 87.5282 27.1232 91.1586 30.7043 94.1907L33.4939 110.084C33.5673 110.502 33.809 110.884 34.1753 111.159C34.5416 111.435 35.0084 111.587 35.4911 111.587H84.0061C84.4889 111.587 84.9556 111.435 85.3219 111.159C85.6882 110.884 85.93 110.502 86.0033 110.084L88.7929 94.1907C92.3741 91.1586 95.2264 87.5282 97.1817 83.5139C99.1371 79.4996 100.156 75.1825 100.178 70.8174C100.178 70.3472 99.9648 69.8964 99.5857 69.5639C99.2066 69.2315 98.6925 69.0448 98.1563 69.0448H93.2038L93.8264 65.4996H98.1563C98.6925 65.4996 99.2066 65.3129 99.5857 64.9804C99.9648 64.648 100.178 64.1971 100.178 63.727V56.6367C100.178 56.1666 99.9648 55.7157 99.5857 55.3833C99.2066 55.0508 98.6925 54.8641 98.1563 54.8641H92.1526L119.584 13.2083C119.983 12.6042 120.243 11.9367 120.347 11.2443C120.451 10.5518 120.398 9.8482 120.19 9.1739ZM65.2066 54.8641C64.5447 53.5625 63.644 52.3649 62.5403 51.3189H79.9632V52.1077L78.1439 54.8641H65.2066ZM61.3072 86.3328L59.7486 67.1463C59.7298 66.9136 59.6588 66.6863 59.5398 66.4776C59.4208 66.2688 59.2561 66.0827 59.0551 65.9298C58.854 65.7769 58.6206 65.6602 58.3681 65.5864C58.1157 65.5126 57.8491 65.4831 57.5836 65.4996C57.3182 65.5161 57.059 65.5783 56.821 65.6827C56.583 65.787 56.3707 65.9315 56.1963 66.1078C56.0219 66.2841 55.8888 66.4887 55.8047 66.7101C55.7205 66.9315 55.6869 67.1653 55.7057 67.398L57.2784 86.6873C56.3561 86.9582 55.4888 87.3561 54.7091 87.8661C53.8274 88.4413 52.7577 88.752 51.6587 88.752C50.5598 88.752 49.4901 88.4413 48.6084 87.8661C47.9209 87.4212 47.1656 87.0632 46.3646 86.8026L49.6211 63.9468C49.6742 63.4863 49.5197 63.0259 49.1907 62.6639C48.8618 62.3019 48.3844 62.0672 47.8606 62.0097C47.3369 61.9523 46.8083 62.0768 46.3878 62.3567C45.9674 62.6365 45.6884 63.0494 45.6105 63.5072L42.3641 86.3062C40.9767 86.4049 39.6337 86.7815 38.4384 87.407L36.0713 88.6478L40.9228 58.8311C41.2597 56.7962 42.3349 54.9104 43.9893 53.4531C44.4149 53.081 44.9914 52.872 45.5924 52.872C46.1934 52.872 46.7698 53.081 47.1954 53.4531C48.3968 54.4601 49.9947 55.0221 51.6567 55.0221C53.3187 55.0221 54.9167 54.4601 56.1181 53.4531C56.5436 53.081 57.1201 52.872 57.7211 52.872C58.3221 52.872 58.8986 53.081 59.3241 53.4531C60.9789 54.9109 62.0542 56.7973 62.3907 58.8329L66.8581 86.2477C66.8932 86.4634 66.8579 86.6833 66.7564 86.8822C66.6549 87.081 66.4913 87.2506 66.2845 87.3713C66.0777 87.492 65.8362 87.5589 65.5878 87.5643C65.3395 87.5696 65.0945 87.5133 64.8811 87.4017C63.7874 86.8315 62.5702 86.4674 61.3072 86.3328ZM79.9632 47.7737H59.7486V44.2286H79.9632V47.7737ZM67.8345 21.1849H71.8774V24.7301H67.8345V21.1849ZM63.7915 35.3656H75.9203C76.9925 35.3656 78.0209 35.7391 78.7791 36.404C79.5373 37.0688 79.9632 37.9706 79.9632 38.9108V40.6834H59.7486V38.9108C59.7486 37.9706 60.1746 37.0688 60.9328 36.404C61.691 35.7391 62.7193 35.3656 63.7915 35.3656ZM33.126 42.5021L31.1046 39.432L34.6057 37.6594L38.1069 35.8868L40.1284 38.9569L33.126 42.5021ZM40.5246 18.2885L42.546 21.3587L39.0448 23.1312L38.0341 21.5962L37.0234 20.0611L40.5246 18.2885ZM32.9845 50.3546C32.572 49.5532 32.5137 48.646 32.8212 47.8091C33.1286 46.9721 33.7798 46.2652 34.6482 45.8257L42.6491 41.7753C43.5163 41.3323 44.5409 41.1893 45.5221 41.3743C46.5033 41.5592 47.3704 42.0588 47.9534 42.775L54.1431 50.3245C53.8296 50.5099 53.5359 50.7199 53.2658 50.952C52.8403 51.3241 52.2638 51.5331 51.6628 51.5331C51.0618 51.5331 50.4853 51.3241 50.0598 50.952C48.8584 49.945 47.2604 49.383 45.5984 49.383C43.9364 49.383 42.3385 49.945 41.1371 50.952C39.8678 52.084 38.845 53.4098 38.119 54.8641H35.3072L32.9845 50.3546ZM23.3624 58.4093H36.9061L36.328 61.9544H23.3624V58.4093ZM23.425 72.59H26.9161L29.544 87.5399C25.9479 83.1575 23.8277 77.9775 23.425 72.59ZM96.0722 72.59C95.6713 77.9764 93.5532 83.1558 89.9593 87.5382L92.5812 72.59H96.0722ZM96.1349 61.9544H66.9895L66.4194 58.4093H96.1349V61.9544Z" fill="#98CA33"/>
</svg>
